<svg xmlns="http://www.w3.org/2000/svg" width="29.314" height="28.011" viewBox="0 0 29.314 28.011">
    <g id="Сгруппировать_1627" data-name="Сгруппировать 1627" transform="translate(-31 -41)">
        <path id="Контур_18" data-name="Контур 18" d="M37.514,141.846a1.954,1.954,0,1,0,3.909,0v-9.12H37.514Zm4.56-3.909h.977a.977.977,0,1,0,0-1.954h-.977Zm-7.166-5.863h6.514V121H34.909Zm2.28-9.12h1.954a.326.326,0,1,1,0,.651H37.189a.326.326,0,0,1,0-.651Zm0,3.257h1.954a.326.326,0,1,1,0,.651H37.189a.326.326,0,1,1,0-.651Zm0,3.257h1.954a.326.326,0,0,1,0,.651H37.189a.326.326,0,0,1,0-.651ZM31,125.039v3a1.435,1.435,0,0,0,1.433,1.433h1.824v-5.863H32.433A1.435,1.435,0,0,0,31,125.039Z" transform="translate(0 -74.789)" fill="#a5a5a5"/>
        <path id="Контур_19" data-name="Контур 19" d="M201,86.8l11.726,3.086V72.486L201,75.572Z" transform="translate(-158.926 -29.435)" fill="#a5a5a5"/>
        <path id="Контур_20" data-name="Контур 20" d="M392.3,41a1.3,1.3,0,0,0-1.3,1.3V61.194a1.3,1.3,0,1,0,2.606,0V42.3A1.3,1.3,0,0,0,392.3,41Zm1.954,7.184V54.01a2.931,2.931,0,0,0,0-5.826Z" transform="translate(-336.549 0)" fill="#a5a5a5"/>
    </g>
</svg>