<svg xmlns="http://www.w3.org/2000/svg" width="28.017" height="28.011" viewBox="0 0 28.017 28.011">
    <g id="Сгруппировать_1637" data-name="Сгруппировать 1637" transform="translate(-3.994 -4)">
        <path id="Контур_27" data-name="Контур 27" d="M20.5,8a.5.5,0,0,1,.5-.5h5.047a3,3,0,1,0,0-1H21A1.5,1.5,0,0,0,19.5,8V9.5h1Zm7.5-1.5a.5.5,0,0,1,.5-.5h1a.5.5,0,0,1,.5.5v1a.5.5,0,0,1-.5.5h-1a.5.5,0,0,1-.5-.5ZM15.5,28.009a.5.5,0,0,1-.5.5H9.954a3,3,0,1,0,0,1H15a1.5,1.5,0,0,0,1.5-1.5V26.538h-1ZM8,29.51a.5.5,0,0,1-.5.5h-1a.5.5,0,0,1-.5-.5v-1a.5.5,0,0,1,.5-.5h1a.5.5,0,0,1,.5.5Z" transform="translate(0 0)" fill="#a5a5a5"/>
        <rect id="Прямоугольник_69" data-name="Прямоугольник 69" width="1" height="0.971" transform="translate(13.501 26.538)" fill="#a5a5a5"/>
        <rect id="Прямоугольник_70" data-name="Прямоугольник 70" width="1" height="0.971" transform="translate(21.504 26.538)" fill="#a5a5a5"/>
        <path id="Контур_28" data-name="Контур 28" d="M7,10A3,3,0,0,0,9.954,7.5H15a.5.5,0,0,1,.5.5V9.5h1V8A1.5,1.5,0,0,0,15,6.5H9.954A3,3,0,1,0,7,10ZM6,6.5A.5.5,0,0,1,6.5,6h1a.5.5,0,0,1,.5.5v1a.5.5,0,0,1-.5.5h-1A.5.5,0,0,1,6,7.5Z" transform="translate(0 0)" fill="#a5a5a5"/>
        <rect id="Прямоугольник_71" data-name="Прямоугольник 71" width="8" height="2" transform="translate(13.999 15.005)" fill="#a5a5a5"/>
        <path id="Контур_29" data-name="Контур 29" d="M32,31.506V16.5a.5.5,0,0,0-.5-.5h-9a.5.5,0,0,0-.5.5V31.506a.5.5,0,0,0,.5.5h9A.5.5,0,0,0,32,31.506ZM22.5,17.5A.5.5,0,0,1,23,17h8a.5.5,0,0,1,.5.5v2a.5.5,0,0,1-.5.5H23a.5.5,0,0,1-.5-.5ZM27,30.506a1.5,1.5,0,1,1,1.5-1.5A1.5,1.5,0,0,1,27,30.506Zm4-7H23a.5.5,0,0,1-.5-.5V21a.5.5,0,0,1,.5-.5h8a.5.5,0,0,1,.5.5v2A.5.5,0,0,1,31,23.5Z" transform="translate(-9 -5.998)" fill="#a5a5a5"/>
        <rect id="Прямоугольник_72" data-name="Прямоугольник 72" width="8" height="1" transform="translate(13.999 12.005)" fill="#a5a5a5"/>
        <ellipse id="Эллипс_13" data-name="Эллипс 13" cy="0.5" ry="0.5" transform="translate(17.999 22.005)" fill="#a5a5a5"/>
        <path id="Контур_30" data-name="Контур 30" d="M44.5,48a3,3,0,0,0-2.956,2.5H36.5A.5.5,0,0,1,36,50V48.5H35V50a1.5,1.5,0,0,0,1.5,1.5h5.047A3,3,0,1,0,44.5,48Zm1,3.5a.5.5,0,0,1-.5.5H44a.5.5,0,0,1-.5-.5v-1A.5.5,0,0,1,44,50h1a.5.5,0,0,1,.5.5Z" transform="translate(-15.497 -21.992)" fill="#a5a5a5"/>
    </g>
</svg>