<svg xmlns="http://www.w3.org/2000/svg" width="27.981" height="28.011" viewBox="0 0 27.981 28.011">
    <g id="Сгруппировать_1622" data-name="Сгруппировать 1622" transform="translate(-2 -2)">
        <path id="Контур_13" data-name="Контур 13" d="M5.993,2H24.26a3.924,3.924,0,0,1,3.993,3.827v8.291a9.465,9.465,0,0,0-2.114-1.575A10.018,10.018,0,0,0,11.921,24.537a9.354,9.354,0,0,0,1.133,2.335H5.993A3.924,3.924,0,0,1,2,23.031V5.841A3.924,3.924,0,0,1,5.993,2Zm2.916,8.291H21.345a1.382,1.382,0,1,0,0-2.764H8.909a1.382,1.382,0,1,0,0,2.764Z" transform="translate(0)" fill="#a5a5a5" fill-rule="evenodd"/>
        <path id="Контур_14" data-name="Контур 14" d="M22.531,10.8a8.662,8.662,0,0,1,2.764,2.377,8.5,8.5,0,0,1,1.727,5.209,8.636,8.636,0,0,1-15.3,5.527,8.431,8.431,0,0,1-1.52-2.764,8.636,8.636,0,0,1,8.18-11.4A8.747,8.747,0,0,1,22.531,10.8Zm-3.565,8.968h2.183v-.055a1.382,1.382,0,1,0,0-2.764H19.021l.4-.4a1.387,1.387,0,0,0-1.962-1.962L14.7,17.35a1.382,1.382,0,0,0-.345,1.382.512.512,0,0,0,0,.193,1.385,1.385,0,0,0,.29.442L17.4,22.131a1.387,1.387,0,1,0,1.962-1.962Z" transform="translate(2.959 2.959)" fill="#a5a5a5" fill-rule="evenodd"/>
    </g>
</svg>