<svg xmlns="http://www.w3.org/2000/svg" width="28" height="28" viewBox="0 0 28 28">
    <path id="Контур_17" data-name="Контур 17" d="M28.488,10.512,25,14l-3.488-3.488A.3.3,0,0,1,21.724,10H24V8a2,2,0,0,0-2-2H13.5a.5.5,0,0,1-.5-.5v-1a.5.5,0,0,1,.5-.5H22a4,4,0,0,1,4,4v2h2.276A.3.3,0,0,1,28.488,10.512ZM18.5,26a.5.5,0,0,1,.5.5v1a.5.5,0,0,1-.5.5H10a4,4,0,0,1-4-4V22H3.724a.3.3,0,0,1-.212-.512L7,18l3.488,3.488a.3.3,0,0,1-.212.512H8v2a2,2,0,0,0,2,2ZM9.5,5a3,3,0,1,1-3-3A3,3,0,0,1,9.5,5ZM11,16H2V13.5A4.5,4.5,0,0,1,6.5,9h0A4.5,4.5,0,0,1,11,13.5Zm17.5,3a3,3,0,1,1-3-3A3,3,0,0,1,28.5,19ZM30,30H21V27.5A4.5,4.5,0,0,1,25.5,23h0A4.5,4.5,0,0,1,30,27.5Z" transform="translate(-2 -2)" fill="#a5a5a5"/>
</svg>