<svg xmlns="http://www.w3.org/2000/svg" width="65.182" height="65.182" viewBox="0 0 65.182 65.182">
  <g id="Сгруппировать_2766" data-name="Сгруппировать 2766" transform="translate(0)">
    <path id="Контур_20794" data-name="Контур 20794" d="M65.971,22.442a2.342,2.342,0,1,0,0-4.684H61.443A8.582,8.582,0,0,0,53.684,10V5.472a2.342,2.342,0,0,0-4.684,0V9.953H45.877V5.472a2.342,2.342,0,0,0-4.684,0V9.953H38.071V5.472a2.342,2.342,0,0,0-4.684,0V9.953H30.265V5.472a2.342,2.342,0,0,0-4.684,0V9.953H22.458V5.472a2.342,2.342,0,0,0-4.684,0V10A8.571,8.571,0,0,0,10,17.759H5.472a2.342,2.342,0,1,0,0,4.684H9.953v3.122H5.472a2.342,2.342,0,1,0,0,4.684H9.953v3.122H5.472a2.342,2.342,0,1,0,0,4.684H9.953v3.122H5.472a2.342,2.342,0,1,0,0,4.684H9.953v3.122H5.472a2.342,2.342,0,1,0,0,4.684H10a8.582,8.582,0,0,0,7.759,7.759v4.528a2.342,2.342,0,0,0,4.684,0V61.473h3.123v4.5a2.342,2.342,0,0,0,4.684,0v-4.5h3.123v4.5a2.342,2.342,0,0,0,4.684,0v-4.5h3.123v4.5a2.342,2.342,0,0,0,4.684,0v-4.5h3.123v4.5a2.342,2.342,0,0,0,4.684,0V61.442a8.582,8.582,0,0,0,7.759-7.759h4.528a2.342,2.342,0,1,0,0-4.684H61.474V45.877h4.5a2.342,2.342,0,1,0,0-4.684h-4.5V38.07h4.5a2.342,2.342,0,1,0,0-4.684h-4.5V30.264h4.5a2.342,2.342,0,1,0,0-4.684h-4.5V22.458h4.5ZM56.79,52.887a3.9,3.9,0,0,1-3.9,3.9H18.54a3.9,3.9,0,0,1-3.9-3.9V18.539a3.9,3.9,0,0,1,3.9-3.9H52.887a3.9,3.9,0,0,1,3.9,3.9Z" transform="translate(-3.13 -3.13)" fill="#a5a5a5"/>
    <path id="Контур_20795" data-name="Контур 20795" d="M39.439,15.63H17.972a2.339,2.339,0,0,0-2.342,2.342V39.439a2.339,2.339,0,0,0,2.342,2.342H39.439a2.339,2.339,0,0,0,2.342-2.342V17.972a2.349,2.349,0,0,0-2.342-2.342ZM37.1,37.1H20.314V20.314H37.1Z" transform="translate(3.886 3.885)" fill="#a5a5a5"/>
  </g>
</svg>
