<svg xmlns="http://www.w3.org/2000/svg" width="65.179" height="42.915" viewBox="0 0 65.179 42.915">
  <g id="power-supply-unit-smps-icon" transform="translate(-0.001)">
    <path id="Контур_20822" data-name="Контур 20822" d="M51.286,32.756l-2.769-.26,2.3-5.024h3.135l-1.777,2.88,3.2.355L49.5,37.759l1.788-5ZM2.705,0H62.474a2.713,2.713,0,0,1,1.91.8h0a2.707,2.707,0,0,1,.8,1.915V40.2a2.717,2.717,0,0,1-2.711,2.711H2.705a2.694,2.694,0,0,1-1.915-.8.568.568,0,0,1-.074-.085A2.707,2.707,0,0,1,0,40.2V2.711A2.691,2.691,0,0,1,.8.8L.8.8a2.688,2.688,0,0,1,1.9-.8ZM62.474,2.276H2.705A.447.447,0,0,0,2.4,2.4V2.4a.437.437,0,0,0-.122.308V40.2a.445.445,0,0,0,.1.276l.032.032a.428.428,0,0,0,.308.127H62.479a.438.438,0,0,0,.308-.127.428.428,0,0,0,.127-.308V2.711a.438.438,0,0,0-.127-.308h0a.441.441,0,0,0-.313-.127Zm-17.2,3.989H57.949a1.465,1.465,0,0,1,1.459,1.459V20.2a1.461,1.461,0,0,1-1.459,1.459H45.271A1.465,1.465,0,0,1,43.812,20.2V7.724a1.458,1.458,0,0,1,1.459-1.459Zm-22.206,9.66a5.343,5.343,0,0,1,1.82.748L27.7,13.856a9.23,9.23,0,0,0-4.636-1.915v3.984Zm3.353,2.27a5.365,5.365,0,0,1,.769,1.825h3.984a9.216,9.216,0,0,0-1.942-4.636L26.418,18.2Zm.785,3.994a5.224,5.224,0,0,1-.753,1.851l2.817,2.817a9.2,9.2,0,0,0,1.915-4.668H27.2Zm-2.281,3.39a5.216,5.216,0,0,1-1.862.774v3.984a9.236,9.236,0,0,0,4.673-1.947l-2.812-2.811Zm-4.026.774a5.355,5.355,0,0,1-1.862-.774l-2.812,2.811A9.236,9.236,0,0,0,20.9,30.337V26.354Zm-3.384-2.313a5.305,5.305,0,0,1-.753-1.851H12.779a9.2,9.2,0,0,0,1.915,4.668l2.817-2.817Zm-.737-4.021a5.365,5.365,0,0,1,.769-1.825l-2.817-2.811a9.216,9.216,0,0,0-1.942,4.636h3.989Zm2.308-3.347a5.343,5.343,0,0,1,1.82-.748V11.941a9.2,9.2,0,0,0-4.636,1.915l2.817,2.817Zm3.984-6.907a11.352,11.352,0,0,1,6.175,2.552L31.717,9.84a14.868,14.868,0,0,0-8.652-3.575v3.5Zm7.708,4.079a11.366,11.366,0,0,1,2.578,6.18h3.5a14.839,14.839,0,0,0-3.607-8.652l-2.472,2.472Zm2.583,8.344A11.389,11.389,0,0,1,30.8,28.4l2.477,2.477a14.859,14.859,0,0,0,3.575-8.689Zm-4.079,7.745a11.393,11.393,0,0,1-6.212,2.583v3.5a14.865,14.865,0,0,0,8.689-3.607l-2.477-2.477ZM20.9,32.512a11.392,11.392,0,0,1-6.212-2.583l-2.477,2.477A14.831,14.831,0,0,0,20.9,36.013v-3.5ZM13.156,28.4A11.356,11.356,0,0,1,10.6,22.184H7.1a14.859,14.859,0,0,0,3.575,8.689L13.156,28.4ZM10.609,20.02a11.382,11.382,0,0,1,2.578-6.18L10.71,11.363A14.853,14.853,0,0,0,7.1,20.015h3.506Zm4.111-7.7A11.392,11.392,0,0,1,20.9,9.766v-3.5A14.868,14.868,0,0,0,12.243,9.84l2.477,2.477Zm7.262-8.259A17.079,17.079,0,1,1,9.9,9.06a17.027,17.027,0,0,1,12.079-5ZM49.2,11.071h.865a.446.446,0,0,1,.313.133h0a.446.446,0,0,1,.133.313v1.9a.446.446,0,0,1-.133.313h0a.446.446,0,0,1-.313.133H49.2a.445.445,0,0,1-.313-.133h0a.445.445,0,0,1-.133-.313v-1.9a.453.453,0,0,1,.446-.446Zm3.262,6.286H50.751a.376.376,0,0,1-.276-.117.4.4,0,0,1-.111-.276V15.882a1,1,0,0,1,.992-.992h.493a1,1,0,0,1,1,1v1.077a.393.393,0,0,1-.111.276.368.368,0,0,1-.276.117Zm.69-6.286h.865a.445.445,0,0,1,.313.133h0a.445.445,0,0,1,.133.313v1.9a.445.445,0,0,1-.133.313h0a.446.446,0,0,1-.313.133h-.865a.446.446,0,0,1-.313-.133h0a.446.446,0,0,1-.133-.313v-1.9a.453.453,0,0,1,.446-.446Zm4.483-3.6a.637.637,0,1,1-.637.637.638.638,0,0,1,.637-.637ZM45.663,19.1a.637.637,0,1,1-.637.637.638.638,0,0,1,.637-.637ZM51.557,8.753a5.209,5.209,0,1,1-5.209,5.209,5.212,5.212,0,0,1,5.209-5.209Z" transform="translate(0.001)" fill="#a5a5a5" fill-rule="evenodd"/>
  </g>
</svg>
