<svg xmlns="http://www.w3.org/2000/svg" width="56.904" height="66.961" viewBox="0 0 56.904 66.961">
  <path id="mouse-svgrepo-com" d="M46.989,68.109H35.8A13.428,13.428,0,0,1,22.37,54.681V34.537H35.94v4.477a4.358,4.358,0,0,0,4.338,4.475h2.236a4.476,4.476,0,0,0,4.477-4.475V34.537H60.56V54.681A13.551,13.551,0,0,1,46.989,68.109Zm0-38.05a4.478,4.478,0,0,0-4.477-4.477h0V12.293s-2.937-.139,4.338-.139S60.56,16.909,60.56,25.583v6.574H46.989ZM40.438,10.639c0-4.327-2.036-6.736-6.114-6.736q-6.47,0-9.9,9.32L23.955,14.5Q19.944,25.391,12.2,25.392a8.7,8.7,0,0,1-5.835-2.38A6.817,6.817,0,0,1,3.656,17.9c0-.9.422-1.356,1.271-1.356q.859,0,1.771,2.16,1.657,3.987,5.532,3.987a6.439,6.439,0,0,0,4.8-1.9q1.869-1.9,4.248-7.295l1.024-2.27Q26.812,1.148,34.447,1.148c5.831,0,8.745,3.327,8.745,9.491H40.438Zm4.313,20.539v6.713a3.357,3.357,0,0,1-6.713,0V31.178a3.357,3.357,0,1,1,6.713,0ZM35.938,12.154c7.272,0,4.475.139,4.475.139V25.583a4.476,4.476,0,0,0-4.475,4.477v2.1H22.368V25.585c0-8.676,6.3-13.431,13.57-13.431Z" transform="translate(-3.656 -1.148)" fill="#a5a5a5"/>
</svg>
