<svg id="computer-keyboard-wireless-icon" xmlns="http://www.w3.org/2000/svg" width="65.182" height="31.545" viewBox="0 0 65.182 31.545">
  <path id="Контур_20823" data-name="Контур 20823" d="M60.376,0a4.817,4.817,0,0,1,4.806,4.806V26.74a4.817,4.817,0,0,1-4.806,4.806H4.806A4.817,4.817,0,0,1,0,26.745V4.806A4.817,4.817,0,0,1,4.806,0ZM48.929,2.037H4.806A2.78,2.78,0,0,0,2.037,4.806V26.74a2.789,2.789,0,0,0,2.774,2.774H60.376A2.789,2.789,0,0,0,63.15,26.74V4.806a2.789,2.789,0,0,0-2.774-2.774H53.353c-1.231.005-3.193.005-4.424.005ZM6.5,5.161h4.111A1.019,1.019,0,0,1,11.633,6.18V9.649a1.019,1.019,0,0,1-1.018,1.018H6.5A1.019,1.019,0,0,1,5.485,9.649V6.18A1.019,1.019,0,0,1,6.5,5.161Zm8.142,0h4.111A1.019,1.019,0,0,1,19.775,6.18V9.649a1.019,1.019,0,0,1-1.018,1.018H14.646a1.019,1.019,0,0,1-1.018-1.018V6.18a1.019,1.019,0,0,1,1.018-1.018Zm8.148,0H26.9A1.019,1.019,0,0,1,27.923,6.18V9.649A1.019,1.019,0,0,1,26.9,10.667H22.793a1.019,1.019,0,0,1-1.018-1.018V6.18a1.019,1.019,0,0,1,1.018-1.018Zm8.142,0h4.111A1.019,1.019,0,0,1,36.065,6.18V9.649a1.019,1.019,0,0,1-1.018,1.018H30.936a1.019,1.019,0,0,1-1.018-1.018V6.18a1.022,1.022,0,0,1,1.018-1.018Zm8.148,0h4.111A1.019,1.019,0,0,1,44.213,6.18V9.649a1.019,1.019,0,0,1-1.018,1.018H39.084a1.019,1.019,0,0,1-1.018-1.018V6.18a1.019,1.019,0,0,1,1.018-1.018Zm8.148,0h4.111A1.019,1.019,0,0,1,52.361,6.18V9.649a1.019,1.019,0,0,1-1.018,1.018H47.231a1.019,1.019,0,0,1-1.018-1.018V6.18a1.019,1.019,0,0,1,1.018-1.018Zm8.142,0h4.111A1.019,1.019,0,0,1,60.5,6.18V9.649a1.019,1.019,0,0,1-1.018,1.018H55.374a1.019,1.019,0,0,1-1.018-1.018V6.18a1.019,1.019,0,0,1,1.018-1.018Zm0,7.49h4.111A1.024,1.024,0,0,1,60.5,13.68V24.65a1.024,1.024,0,0,1-1.018,1.029H55.374a1.024,1.024,0,0,1-1.018-1.029V13.68a1.024,1.024,0,0,1,1.018-1.029Zm-48.87.09h4.111a1.019,1.019,0,0,1,1.018,1.018v3.469a1.019,1.019,0,0,1-1.018,1.018H6.5a1.019,1.019,0,0,1-1.018-1.018V13.76A1.019,1.019,0,0,1,6.5,12.741Zm8.142,0h4.111a1.019,1.019,0,0,1,1.018,1.018v3.469a1.019,1.019,0,0,1-1.018,1.018H14.646a1.019,1.019,0,0,1-1.018-1.018V13.76a1.019,1.019,0,0,1,1.018-1.018Zm8.148,0H26.9a1.019,1.019,0,0,1,1.018,1.018v3.469A1.019,1.019,0,0,1,26.9,18.247H22.793a1.019,1.019,0,0,1-1.018-1.018V13.76a1.019,1.019,0,0,1,1.018-1.018Zm8.142,0h4.111a1.019,1.019,0,0,1,1.018,1.018v3.469a1.019,1.019,0,0,1-1.018,1.018H30.936a1.019,1.019,0,0,1-1.018-1.018V13.76a1.022,1.022,0,0,1,1.018-1.018Zm8.148,0h4.111a1.019,1.019,0,0,1,1.018,1.018v3.469a1.019,1.019,0,0,1-1.018,1.018H39.084a1.019,1.019,0,0,1-1.018-1.018V13.76a1.019,1.019,0,0,1,1.018-1.018Zm8.148,0h4.111a1.019,1.019,0,0,1,1.018,1.018v3.469a1.019,1.019,0,0,1-1.018,1.018H47.231a1.019,1.019,0,0,1-1.018-1.018V13.76a1.019,1.019,0,0,1,1.018-1.018ZM6.5,20.242h4.111a1.019,1.019,0,0,1,1.018,1.018v3.469a1.019,1.019,0,0,1-1.018,1.018H6.5a1.019,1.019,0,0,1-1.018-1.018V21.26A1.019,1.019,0,0,1,6.5,20.242Zm8.142,0H35.052A1.013,1.013,0,0,1,36.06,21.26v3.469a1.013,1.013,0,0,1-1.008,1.018H14.646a1.013,1.013,0,0,1-1.008-1.018V21.26a1.013,1.013,0,0,1,1.008-1.018Zm24.438,0h4.111a1.019,1.019,0,0,1,1.018,1.018v3.469a1.019,1.019,0,0,1-1.018,1.018H39.084a1.019,1.019,0,0,1-1.018-1.018V21.26a1.019,1.019,0,0,1,1.018-1.018Zm8.148,0h4.111a1.019,1.019,0,0,1,1.018,1.018v3.469a1.019,1.019,0,0,1-1.018,1.018H47.231a1.019,1.019,0,0,1-1.018-1.018V21.26a1.019,1.019,0,0,1,1.018-1.018Z" fill="#a5a5a5"/>
</svg>
