<svg id="monitor-icon" xmlns="http://www.w3.org/2000/svg" width="65.182" height="54.052" viewBox="0 0 65.182 54.052">
  <path id="Контур_20824" data-name="Контур 20824" d="M1.772,0H63.41a1.775,1.775,0,0,1,1.772,1.772V42.605a1.775,1.775,0,0,1-1.772,1.772H1.772A1.775,1.775,0,0,1,0,42.605V1.772A1.775,1.775,0,0,1,1.772,0ZM24.555,46.822H40.627a8.255,8.255,0,0,0,4.291,7.23H20.263c2.483-1.8,4.3-3.984,4.291-7.23Zm8.036-8.413a2.276,2.276,0,1,1-2.276,2.276,2.275,2.275,0,0,1,2.276-2.276ZM5.331,3.336H59.856A1.568,1.568,0,0,1,61.421,4.9V35.412a1.571,1.571,0,0,1-1.565,1.565H5.331a1.571,1.571,0,0,1-1.565-1.565V4.9A1.564,1.564,0,0,1,5.331,3.336Z" fill="#a5a5a5" fill-rule="evenodd"/>
</svg>
