<svg xmlns="http://www.w3.org/2000/svg" width="65.184" height="59.921" viewBox="0 0 65.184 59.921">
  <path id="headphone-headset-icon" d="M8.121,46.432A10.9,10.9,0,0,0,8.774,48.9a6.594,6.594,0,0,0,1.459,2.26c2.058,2.042,4.732,2.037,7.66,2.037h1.39c1.2-1.735,4.032-2.949,7.32-2.949,4.387,0,7.957,2.159,7.957,4.827S31,59.9,26.6,59.9c-3.22,0-5.994-1.167-7.241-2.843H17.893c-3.756,0-7.188,0-10.371-3.151A10.492,10.492,0,0,1,5.2,50.347a15.171,15.171,0,0,1-.955-3.915A4.35,4.35,0,0,1,0,42.093V26.444a4.35,4.35,0,0,1,4.339-4.339h.308c.785-8.036,5.835-14.322,12.662-18.083A32.81,32.81,0,0,1,30.433.1,30.8,30.8,0,0,1,44.2,2.043c7.665,3.029,14.089,9.463,16.577,20.062h.069a4.35,4.35,0,0,1,4.339,4.339V42.093a4.35,4.35,0,0,1-4.339,4.339H56.505V22.487C54.283,13.782,48.957,8.478,42.639,6A26.524,26.524,0,0,0,30.767,4.33a28.465,28.465,0,0,0-11.4,3.39C13.458,11,9.145,16.435,8.8,23.357a2.122,2.122,0,0,1-.117.61V46.432Z" transform="translate(0 0.021)" fill="#a5a5a5"/>
</svg>
