<svg xmlns="http://www.w3.org/2000/svg" width="65.18" height="65.184" viewBox="0 0 65.18 65.184">
  <g id="cpu-fan-cooling-icon" transform="translate(0 0)">
    <path id="Контур_20818" data-name="Контур 20818" d="M6.132,0H59.043A6.158,6.158,0,0,1,65.18,6.137v52.91a6.158,6.158,0,0,1-6.137,6.137H6.132A6.148,6.148,0,0,1,0,59.047V6.132A6.158,6.158,0,0,1,6.132,0ZM30.357,38.445a6.536,6.536,0,0,1-2.223-1.22,9.017,9.017,0,0,1-1.941-2.313c-.265.016-.515.021-.759.021-.424.005-.865-.016-1.326-.048a15.982,15.982,0,0,1-4.546-1.125,18.993,18.993,0,0,0-2.732-.838,2.932,2.932,0,0,0-.923-.042,1.693,1.693,0,0,0-1.093.631,3.272,3.272,0,0,0-.626,1.432,5.594,5.594,0,0,0-.037,1.9,8.8,8.8,0,0,0,.446,1.676,13.126,13.126,0,0,0,.732,1.639,11.267,11.267,0,0,0,.822,1.358,14.013,14.013,0,0,0,.987,1.252,10.13,10.13,0,0,0,3.618,2.764A5.67,5.67,0,0,0,24,45.919a6.293,6.293,0,0,0,3-1.533,12.076,12.076,0,0,0,3.05-4.53,3.778,3.778,0,0,0,.26-1,1.439,1.439,0,0,0,.048-.408Zm8.885-3.533a6.482,6.482,0,0,1-1.406,2.111,8.919,8.919,0,0,1-2.472,1.734c-.011.265-.021.515-.048.759-.032.424-.085.865-.159,1.315a15.934,15.934,0,0,1-1.506,4.434,19.02,19.02,0,0,0-1.066,2.647,2.657,2.657,0,0,0-.117.918A1.7,1.7,0,0,0,33,49.971a3.275,3.275,0,0,0,1.374.748,5.545,5.545,0,0,0,1.894.2,8.819,8.819,0,0,0,1.708-.3,13.347,13.347,0,0,0,1.7-.594,11.437,11.437,0,0,0,1.422-.705,14.76,14.76,0,0,0,1.331-.875,10.157,10.157,0,0,0,3.061-3.368,5.659,5.659,0,0,0,.658-3.2,6.351,6.351,0,0,0-1.273-3.119,12.039,12.039,0,0,0-4.254-3.421,3.5,3.5,0,0,0-.976-.339,1.872,1.872,0,0,0-.4-.08Zm-4.307-8.227A6.6,6.6,0,0,1,37.1,28a8.954,8.954,0,0,1,1.846,2.392c.249,0,.5.005.759.016.456.016.891.048,1.321.1a15.883,15.883,0,0,1,4.493,1.315,19.236,19.236,0,0,0,2.7.944.222.222,0,0,0,.032.011,2.629,2.629,0,0,0,.886.069,1.7,1.7,0,0,0,1.119-.583,3.377,3.377,0,0,0,.684-1.411,5.7,5.7,0,0,0,.117-1.9,8.762,8.762,0,0,0-.371-1.7,13.219,13.219,0,0,0-.668-1.671,12.572,12.572,0,0,0-.769-1.39,15.8,15.8,0,0,0-.934-1.289,10.054,10.054,0,0,0-3.5-2.9,5.739,5.739,0,0,0-3.23-.515,6.366,6.366,0,0,0-3.061,1.406,12.023,12.023,0,0,0-3.23,4.4,4.028,4.028,0,0,0-.3.992,2.442,2.442,0,0,0-.058.408Zm1.178,2.806a4.514,4.514,0,1,0,1.321,3.193,4.5,4.5,0,0,0-1.321-3.193Zm-9.4.918a6.539,6.539,0,0,1,1.3-2.175A8.971,8.971,0,0,1,30.4,26.389c0-.255,0-.5.011-.759q.024-.676.1-1.321a15.945,15.945,0,0,1,1.3-4.5,19.548,19.548,0,0,0,.944-2.7,2.562,2.562,0,0,0,.074-.918,1.721,1.721,0,0,0-.589-1.119,3.278,3.278,0,0,0-1.411-.679,5.7,5.7,0,0,0-1.9-.111,8.692,8.692,0,0,0-1.7.377,13.714,13.714,0,0,0-1.671.668,12.233,12.233,0,0,0-1.39.774,13.47,13.47,0,0,0-1.284.934,10.046,10.046,0,0,0-2.9,3.517,5.629,5.629,0,0,0-.5,3.225,6.29,6.29,0,0,0,1.411,3.055A12.122,12.122,0,0,0,25.3,30.059a3.824,3.824,0,0,0,.987.3,3.96,3.96,0,0,0,.43.053ZM32.59,8.163A24.431,24.431,0,1,1,8.158,32.595,24.43,24.43,0,0,1,32.59,8.163ZM57.319,5.071a3.1,3.1,0,1,1-3.1,3.1,3.1,3.1,0,0,1,3.1-3.1Zm-49.463,0a3.1,3.1,0,1,1-3.1,3.1,3.1,3.1,0,0,1,3.1-3.1ZM57.319,53.96a3.1,3.1,0,1,1-3.1,3.1,3.1,3.1,0,0,1,3.1-3.1Zm-46.36,3.1a3.1,3.1,0,1,1-3.1-3.1,3.1,3.1,0,0,1,3.1,3.1Z" transform="translate(0 0)" fill="#a5a5a5" fill-rule="evenodd"/>
  </g>
</svg>
