<svg xmlns="http://www.w3.org/2000/svg" width="65.181" height="62.39" viewBox="0 0 65.181 62.39">
  <g id="motherboard-icon" transform="translate(0 0)">
    <path id="Контур_20819" data-name="Контур 20819" d="M37.872,54.894H39.8V51.287H37.872v3.607ZM3.2,0H61.983a3.215,3.215,0,0,1,3.2,3.2V59.186a3.206,3.206,0,0,1-3.2,3.2H3.2a3.206,3.206,0,0,1-3.2-3.2V3.2A3.215,3.215,0,0,1,3.2,0ZM61.192,3.995H3.995v24.79H9.66V26.641a.915.915,0,0,1-.143-.08,1.6,1.6,0,0,1-.233-.18l-.005-.011a1.3,1.3,0,0,1-.286-.424,1.389,1.389,0,0,1-.1-.515,1.368,1.368,0,0,1,.1-.515h0a1.541,1.541,0,0,1,.292-.446,1.364,1.364,0,0,1,.435-.292,1.411,1.411,0,0,1,.515-.1,1.369,1.369,0,0,1,.515.1,1.449,1.449,0,0,1,.44.292,1.425,1.425,0,0,1,.292.435l.005.011a1.335,1.335,0,0,1,.1.5,1.389,1.389,0,0,1-.1.515,1.363,1.363,0,0,1-.292.435l-.011.011a1.514,1.514,0,0,1-.2.164.71.71,0,0,1-.122.069v2.764a.606.606,0,0,1-.175.424.616.616,0,0,1-.424.175H3.995v1.8h8.811a1.068,1.068,0,0,1,.074-.133l.005-.005a1.364,1.364,0,0,1,.615-.5l.011-.005a1.356,1.356,0,0,1,.5-.1,1.389,1.389,0,0,1,.515.1,1.307,1.307,0,0,1,.435.292,1.363,1.363,0,0,1,.292.435,1.411,1.411,0,0,1,.1.515,1.327,1.327,0,0,1-.393.95,1.425,1.425,0,0,1-.435.292l-.011.005a1.337,1.337,0,0,1-1.019,0,1.449,1.449,0,0,1-.44-.292,1.049,1.049,0,0,1-.175-.223c-.027-.042-.053-.09-.074-.133H3.995v2.079h9.952a.616.616,0,0,1,.424.175.576.576,0,0,1,.175.424V40.1a1.212,1.212,0,0,1,.164.085,1.331,1.331,0,0,1,.255.2,1.425,1.425,0,0,1,.292.435l.005.011a1.351,1.351,0,0,1,.1.5,1.389,1.389,0,0,1-.1.515,1.541,1.541,0,0,1-.292.446,1.364,1.364,0,0,1-.435.292,1.411,1.411,0,0,1-.515.1,1.389,1.389,0,0,1-.515-.1,1.354,1.354,0,0,1-.727-.727,1.389,1.389,0,0,1-.1-.515,1.368,1.368,0,0,1,.1-.515,1.387,1.387,0,0,1,.292-.44,1.3,1.3,0,0,1,.186-.154c.032-.021.069-.042.1-.064V36.264H3.995v1.7H9.241a.6.6,0,0,1,.594.6v2.382c.042.021.085.042.127.069a1.427,1.427,0,0,1,.218.175l.011.011a1.469,1.469,0,0,1,.281.43,1.389,1.389,0,0,1,.1.515,1.369,1.369,0,0,1-.1.515l-.005.011a1.326,1.326,0,0,1-.286.43l-.011.005a1.385,1.385,0,0,1-.43.286,1.172,1.172,0,0,1-.509.111,1.389,1.389,0,0,1-.515-.1,1.307,1.307,0,0,1-.435-.292L8.27,43.1a1.469,1.469,0,0,1-.281-.43,1.411,1.411,0,0,1-.1-.515,1.362,1.362,0,0,1,.1-.509,1.307,1.307,0,0,1,.292-.435h0a1.093,1.093,0,0,1,.228-.186,1.168,1.168,0,0,1,.138-.08V39.171H3.995V58.4h8.955v-5.7H10.811c-.027.048-.053.1-.08.143a1.315,1.315,0,0,1-.18.228l-.011.005a1.3,1.3,0,0,1-.424.286,1.389,1.389,0,0,1-.515.1,1.368,1.368,0,0,1-.515-.1h0a1.541,1.541,0,0,1-.446-.292,1.364,1.364,0,0,1-.292-.435,1.411,1.411,0,0,1-.1-.515,1.328,1.328,0,0,1,.393-.95,1.425,1.425,0,0,1,.435-.292l.011-.005a1.335,1.335,0,0,1,.5-.1,1.389,1.389,0,0,1,.515.1,1.363,1.363,0,0,1,.435.292l.011.011a1.189,1.189,0,0,1,.164.2.71.71,0,0,1,.069.122h2.764a.606.606,0,0,1,.424.175.616.616,0,0,1,.175.424v6.3h1.8V49.542h0a1.068,1.068,0,0,1-.133-.074h-.005a1.38,1.38,0,0,1-.212-.175,1.425,1.425,0,0,1-.292-.435l-.005-.011a1.362,1.362,0,0,1-.1-.509,1.389,1.389,0,0,1,.1-.515,1.307,1.307,0,0,1,.292-.435,1.364,1.364,0,0,1,.435-.292,1.411,1.411,0,0,1,.515-.1,1.328,1.328,0,0,1,.95.393,1.425,1.425,0,0,1,.292.435l.005.011a1.351,1.351,0,0,1,.1.5,1.327,1.327,0,0,1-.393.95,1.049,1.049,0,0,1-.223.175c-.042.027-.09.053-.133.074v8.848h2.08V48.4h0a.616.616,0,0,1,.175-.424.576.576,0,0,1,.424-.175H24.27c.027-.053.053-.111.085-.164a1.577,1.577,0,0,1,.2-.255,1.425,1.425,0,0,1,.435-.292L25,47.086a1.351,1.351,0,0,1,.5-.1,1.389,1.389,0,0,1,.515.1,1.541,1.541,0,0,1,.446.292,1.364,1.364,0,0,1,.292.435,1.411,1.411,0,0,1,.1.515,1.345,1.345,0,0,1-.828,1.241,1.389,1.389,0,0,1-.515.1,1.369,1.369,0,0,1-.515-.1,1.449,1.449,0,0,1-.44-.292,1.3,1.3,0,0,1-.154-.186c-.021-.032-.042-.069-.064-.1H20.429v9.39h1.7V53.1h0a.6.6,0,0,1,.6-.594h2.382a.791.791,0,0,1,.074-.127,1.427,1.427,0,0,1,.175-.217l.011-.011a1.36,1.36,0,0,1,1.459-.281l.011.005a1.326,1.326,0,0,1,.43.286l.005.011a1.362,1.362,0,0,1,.286.424,1.364,1.364,0,0,1,0,1.029,1.307,1.307,0,0,1-.292.435l-.011.011a1.469,1.469,0,0,1-.43.281,1.411,1.411,0,0,1-.515.1,1.389,1.389,0,0,1-.515-.1,1.307,1.307,0,0,1-.435-.292h0a1.292,1.292,0,0,1-.186-.228,1.167,1.167,0,0,1-.08-.138H23.326v4.679H61.187V3.995ZM17.416,21.012h.759V19.023h-.759v1.989Zm-8.53,0h.759V19.023H8.886v1.989ZM8.758,9.782h3.995a.325.325,0,0,1,.324.324v7.931a.324.324,0,0,1-.324.318H8.758a.324.324,0,0,1-.324-.318V10.1a.32.32,0,0,1,.324-.318Zm3.231-2.69h.626V9.082h-.626V7.093Zm-1.485,0h.626V9.082H10.5V7.093Zm-1.618,0h.759V9.082H8.886V7.093Zm3.1,13.92h.626V19.023h-.626v1.989Zm-1.485,0h.626V19.023H10.5v1.989Zm6.785-11.23h3.995a.317.317,0,0,1,.318.324v7.931a.319.319,0,0,1-.318.318H17.289a.319.319,0,0,1-.318-.318V10.1a.313.313,0,0,1,.318-.318Zm3.231-2.69h.631V9.082h-.631V7.093Zm-1.485,0h.626V9.082h-.626V7.093Zm-1.618,0h.759V9.082h-.759V7.093Zm3.1,13.92h.631V19.023h-.631v1.989Zm-1.485,0h.626V19.023h-.626v1.989Zm8.212-11.75c0-.286.318-.525.716-.525s.716.233.716.525V26.678c0,.286-.318.525-.716.525s-.716-.233-.716-.525V9.262Zm4.684-.069v.8h2.7v-.8Zm0,12.122v.8h2.7v-.8Zm22.392-.737v2.408a.342.342,0,0,1-.34.34h-18.6a.338.338,0,0,1-.34-.34V20.577a.338.338,0,0,1,.34-.34h18.6a.342.342,0,0,1,.34.34Zm2.536.737v.8h-2.1v-.8ZM31.93,15.251v.8h2.7v-.8Zm22.392-.732v2.4a.338.338,0,0,1-.34.34h-18.6a.335.335,0,0,1-.34-.34v-2.4a.335.335,0,0,1,.34-.34h18.6a.338.338,0,0,1,.34.34Zm2.536.732v.8h-2.1v-.8Zm-2.536-6.8v2.408a.342.342,0,0,1-.34.34h-18.6a.338.338,0,0,1-.34-.34V8.456a.338.338,0,0,1,.34-.34h18.6a.338.338,0,0,1,.34.34Zm2.536.737v.8h-2.1v-.8ZM36.816,35.521h13.1a.821.821,0,0,1,.817.817V49.484a.817.817,0,0,1-.817.817h-13.1A.817.817,0,0,1,36,49.484V36.333a.816.816,0,0,1,.817-.812Zm3.448,3.814h6.2a.5.5,0,0,1,.493.493v6.154a.5.5,0,0,1-.493.493h-6.2a.5.5,0,0,1-.493-.493V39.829a.5.5,0,0,1,.493-.493ZM55.638,43.6v1.607H52.031V43.6Zm0-3.072v1.607H52.031V40.529Zm0,6.143V48.6H52.031V46.672Zm0-9.543V39.06H52.031V37.129ZM31.585,43.6v1.607h3.607V43.6Zm0-3.072v1.607h3.607V40.529Zm0,6.143V48.6h3.607V46.672Zm0-9.543V39.06h3.607V37.129Zm12.758-6.286h1.607V34.45H44.344V30.842Zm-3.072,0H42.88V34.45H41.272V30.842Zm6.143,0h1.931V34.45H47.415V30.842Zm-9.544,0H39.8V34.45H37.872V30.842Zm6.472,24.052h1.607V51.287H44.344v3.607Zm-3.072,0H42.88V51.287H41.272v3.607Zm6.143,0h1.931V51.287H47.415v3.607Z" transform="translate(0 0)" fill="#a5a5a5" fill-rule="evenodd"/>
  </g>
</svg>
