<svg xmlns="http://www.w3.org/2000/svg" width="65.182" height="47.791" viewBox="0 0 65.182 47.791">
  <path id="ram-memory-icon" d="M3.2,5.086H7.556V0h3.291V5.086h6.066V0H20.2V5.086h6.065V0h3.29V5.086h6.066V0h3.29V5.086H44.98V0h3.29V5.086h6.066V0h3.29V5.086h4.358a3.187,3.187,0,0,1,2.255.938l.006.006a3.188,3.188,0,0,1,.938,2.255V39.823a3.193,3.193,0,0,1-.938,2.255l-.006.006a3.193,3.193,0,0,1-2.255.938H57.625v4.769h-3.29V43.022H48.269v4.769H44.98V43.022H38.913v4.769h-3.29V43.022H29.557v4.769h-3.29V43.022H20.2v4.769h-3.29V43.022H10.847v4.769H7.556V43.022H3.2a3.19,3.19,0,0,1-2.255-.938l-.006-.006A3.193,3.193,0,0,1,0,39.823V8.285A3.188,3.188,0,0,1,.938,6.031l.006-.006A3.185,3.185,0,0,1,3.2,5.086ZM22.911,30.56H18.33l-1.707-3.873h-1.09V30.56h-3.97V17.548h6.559q4.476,0,4.476,4.559,0,3.124-1.936,4.122Zm-7.378-9.875v2.992h1.152a2.813,2.813,0,0,0,1.094-.157q.344-.157.344-.718V21.56c0-.376-.116-.615-.344-.718a2.817,2.817,0,0,0-1.094-.157H15.533ZM28.095,30.56H23.7l3.372-13.012h6.433L36.88,30.56H32.488L32.009,28.5H28.573Zm1.692-9.015-.463,3.644h1.915l-.443-3.644Zm12.34,9.015H37.775l.791-13.012H44l1.624,6.62h.145l1.623-6.62h5.434l.792,13.012H49.268l-.25-6.308h-.146L47.289,30.56H44.105l-1.6-6.308h-.126l-.25,6.308ZM61.893,8.376H3.29V39.733h58.6Z" fill="#a5a5a5"/>
</svg>
