<svg xmlns="http://www.w3.org/2000/svg" width="65.182" height="51.67" viewBox="0 0 65.182 51.67">
  <g id="graphic-card-icon" transform="translate(0 0)">
    <path id="Контур_20816" data-name="Контур 20816" d="M5.336,0h5.925V10.052H60.97a3.7,3.7,0,0,1,2.753,1.236,4.425,4.425,0,0,1,1.459,2.976v26.22A4.22,4.22,0,0,1,60.97,44.7h-1.5v3.257a1.459,1.459,0,0,1-.424,1.018l-.005.005a1.459,1.459,0,0,1-1.018.424H33.036a1.462,1.462,0,0,1-1.024-.424,1.062,1.062,0,0,1-.074-.085,1.445,1.445,0,0,1-.35-.939V44.7H28.061v3.257a1.462,1.462,0,0,1-.424,1.024,1.062,1.062,0,0,1-.085.074,1.445,1.445,0,0,1-.939.35H14.837a1.462,1.462,0,0,1-1.024-.424,1.062,1.062,0,0,1-.074-.085,1.445,1.445,0,0,1-.35-.939V44.7H11.261V51.67H5.336V40.033H3.395a.319.319,0,0,1-.318-.318V30.75a.319.319,0,0,1,.318-.318H5.331V22.295H3.395a.319.319,0,0,1-.318-.318V13.012a.319.319,0,0,1,.318-.318H5.331V4.721H2.361A2.369,2.369,0,0,1,0,2.36H0A2.366,2.366,0,0,1,2.361,0ZM19.78,36.622h1.66V34.606H19.78v2.016Zm28.994-20.6a11.355,11.355,0,1,1-8.026,3.326,11.317,11.317,0,0,1,8.026-3.326ZM55.851,20.3a10.014,10.014,0,1,0,2.928,7.076A9.978,9.978,0,0,0,55.851,20.3Zm-3.782,8.227a3.238,3.238,0,0,1-.695,1.05,4.394,4.394,0,0,1-1.225.865c-.005.133-.011.255-.021.377q-.024.318-.08.652a7.939,7.939,0,0,1-.748,2.2,9.6,9.6,0,0,0-.53,1.315,1.455,1.455,0,0,0-.058.456.843.843,0,0,0,.265.568,1.619,1.619,0,0,0,.679.371,2.81,2.81,0,0,0,.944.1,4.385,4.385,0,0,0,.849-.149,7.179,7.179,0,0,0,.843-.292,5.138,5.138,0,0,0,.706-.35,6.788,6.788,0,0,0,.663-.435,4.991,4.991,0,0,0,1.517-1.671A2.785,2.785,0,0,0,55.5,32a3.141,3.141,0,0,0-.631-1.549,6.044,6.044,0,0,0-2.111-1.7,1.806,1.806,0,0,0-.483-.17.586.586,0,0,0-.207-.048Zm-2.143-4.084A3.189,3.189,0,0,1,51,25.1a4.42,4.42,0,0,1,.918,1.188c.122,0,.249,0,.377.005.228.011.446.027.658.048a7.849,7.849,0,0,1,2.233.652,9.071,9.071,0,0,0,1.342.467.019.019,0,0,1,.016.005,1.288,1.288,0,0,0,.44.032.857.857,0,0,0,.557-.292,1.663,1.663,0,0,0,.339-.7,2.82,2.82,0,0,0,.058-.944,4.372,4.372,0,0,0-.186-.843,8.237,8.237,0,0,0-.329-.833,6.192,6.192,0,0,0-.382-.69,7.279,7.279,0,0,0-.467-.642,4.953,4.953,0,0,0-1.74-1.443,2.841,2.841,0,0,0-1.607-.255,3.2,3.2,0,0,0-1.517.695,6.025,6.025,0,0,0-1.607,2.185,1.823,1.823,0,0,0-.149.493,1.535,1.535,0,0,0-.032.217Zm-4.084,1.846a3.248,3.248,0,0,1,.647-1.082,4.443,4.443,0,0,1,1.188-.918c0-.127,0-.249.005-.377.005-.223.021-.446.048-.658a7.8,7.8,0,0,1,.647-2.233,9.318,9.318,0,0,0,.467-1.342,1.271,1.271,0,0,0,.037-.456.869.869,0,0,0-.292-.557,1.663,1.663,0,0,0-.7-.339,2.687,2.687,0,0,0-.944-.053,4.288,4.288,0,0,0-.843.186,6.58,6.58,0,0,0-.828.334,5.873,5.873,0,0,0-.69.387,6.96,6.96,0,0,0-.637.461,4.933,4.933,0,0,0-1.438,1.745,2.781,2.781,0,0,0-.249,1.6,3.16,3.16,0,0,0,.7,1.517,6.041,6.041,0,0,0,2.191,1.6,1.823,1.823,0,0,0,.493.149.76.76,0,0,0,.2.032Zm4.843-.631a2.484,2.484,0,1,0,.727,1.756,2.461,2.461,0,0,0-.727-1.756ZM47.65,30.294a3.315,3.315,0,0,1-1.087-.631,4.494,4.494,0,0,1-.939-1.172h-.377c-.217-.005-.44-.016-.652-.037a7.893,7.893,0,0,1-2.244-.615A9.792,9.792,0,0,0,41,27.387a1.388,1.388,0,0,0-.456-.032.86.86,0,0,0-.552.3,1.683,1.683,0,0,0-.329.7,2.817,2.817,0,0,0-.042.944,4.283,4.283,0,0,0,.2.838,6.068,6.068,0,0,0,.345.822,7.34,7.34,0,0,0,.393.684c.149.223.308.435.472.637A5,5,0,0,0,42.8,33.688a2.835,2.835,0,0,0,1.607.233,3.148,3.148,0,0,0,1.506-.721,6.027,6.027,0,0,0,1.57-2.212,1.675,1.675,0,0,0,.138-.493,1.23,1.23,0,0,0,.027-.2Zm-28.777-9.23H30.124a.7.7,0,0,1,.7.7V33.052a.7.7,0,0,1-.7.7H18.873a.7.7,0,0,1-.7-.7V21.764a.7.7,0,0,1,.7-.7Zm2.965,3.278h5.32a.426.426,0,0,1,.424.424v5.289a.426.426,0,0,1-.424.424h-5.32a.426.426,0,0,1-.424-.424V24.766a.426.426,0,0,1,.424-.424ZM33.959,28v1.379H31.944V28Zm0-2.636v1.379H31.944V25.366Zm0,5.278V32.3H31.944v-1.66Zm0-8.2v1.66H31.944v-1.66ZM15.463,28v1.379h2.016V28Zm0-2.636v1.379h2.016V25.366Zm0,5.278V32.3h2.016v-1.66Zm0-8.2v1.66h2.016v-1.66Zm9.877-4.323h1.379v2.016H25.34V18.125Zm-2.636,0h1.379v2.016H22.7V18.125Zm5.273,0h1.66v2.016h-1.66V18.125Zm-8.2,0h1.66v2.016H19.78V18.125Zm5.559,18.5h1.379V34.606H25.34v2.016Zm-2.636,0h1.379V34.606H22.7v2.016Zm5.273,0h1.66V34.606h-1.66v2.016ZM11.261,12.89V42H59.867a2.669,2.669,0,0,0,1.9-.8,2.71,2.71,0,0,0,.8-1.9V15.59a2.717,2.717,0,0,0-2.695-2.7H11.261ZM57.628,44.7H54.217a.915.915,0,0,1,.085.382v2.482h3.326V44.7Zm-5.087,0H48.658a.915.915,0,0,1,.085.382v2.482h3.718V45.077a.93.93,0,0,1,.08-.382Zm-5.559,0H43.094a.915.915,0,0,1,.085.382v2.482H46.9V45.077a.934.934,0,0,1,.085-.382Zm-5.559,0H37.54a.915.915,0,0,1,.085.382v2.482h3.718V45.077a.852.852,0,0,1,.08-.382Zm-5.559,0H33.429v2.864h2.35V45.077a.934.934,0,0,1,.085-.382Zm-9.644,0H23.9a.915.915,0,0,1,.085.382v2.482H26.22V44.7Zm-3.994,0H18.895a.915.915,0,0,1,.085.382v2.482h3.167V45.077a.852.852,0,0,1,.08-.382Zm-5.007,0H15.224v2.864h1.91V45.077a.934.934,0,0,1,.085-.382Z" transform="translate(0 0)" fill="#a5a5a5" fill-rule="evenodd"/>
  </g>
</svg>
