<svg xmlns="http://www.w3.org/2000/svg" width="48.627" height="56.126" viewBox="0 0 48.627 56.126">
  <g id="hard-drive-icon" transform="translate(0.001)">
    <path id="Контур_20817" data-name="Контур 20817" d="M12.34,0H35.714c4.847,0,8.268,4,8.807,8.807l3.522,31.236a.587.587,0,0,1,.018.087c.27,2.27.466,4.244.53,5.989a18.815,18.815,0,0,1-.288,4.568c0,.023-.014.05-.018.073a5.889,5.889,0,0,1-5.847,5.367H5.986A5.887,5.887,0,0,1,.139,50.75a.488.488,0,0,1-.014-.114l0-.21v-.032C.107,49.9.088,49.357.07,48.786a62.836,62.836,0,0,1,.023-6.879l0,.009.041-.347c.009-.114.023-.233.037-.347L3.533,8.807C4.031,3.988,7.5,0,12.34,0ZM47.454,47.219c0-.338-.009-.69-.023-1.051-.059-1.576-.233-3.394-.475-5.477a3.491,3.491,0,0,0-1.274-.238H2.952a3.51,3.51,0,0,0-1.562.365,39.1,39.1,0,0,0-.206,6.089A5.87,5.87,0,0,1,5.99,44.4H42.443a5.877,5.877,0,0,1,5.011,2.823ZM6.822,49.265h9.017v3.2H6.822v-3.2Z" transform="translate(0.013)" fill="#a5a5a5" fill-rule="evenodd"/>
  </g>
</svg>
