<svg xmlns="http://www.w3.org/2000/svg" width="48.628" height="56.011" viewBox="0 0 48.628 56.011">
  <path id="ssd-storage-icon" d="M6.191,44.569H42.515a6.959,6.959,0,0,1,3.8,1.182c-.007-.587-.019-1.19-.034-1.794-.054-1.976-.158-3.958-.32-5.428H2.607c-.1,1.5-.223,3.709-.278,5.818-.012.491-.021.978-.025,1.451a6.964,6.964,0,0,1,3.886-1.229Zm42.395,5.088a5.709,5.709,0,0,1-2.518,5.392,7.024,7.024,0,0,1-3.553.963H6.191a6.616,6.616,0,0,1-4.561-1.819A5.693,5.693,0,0,1,.13,49.56a45.31,45.31,0,0,1-.1-5.268c.068-2.717.241-5.433.337-6.808q0-.044,0-.089l.008-.123L2.83,9.537A10.866,10.866,0,0,1,5.976,2.732L6,2.711A9.419,9.419,0,0,1,12.658,0H35.679a9.392,9.392,0,0,1,6.658,2.721h0A10.976,10.976,0,0,1,45.5,9.533l2.544,27.293a1.189,1.189,0,0,1,.034.143,56.274,56.274,0,0,1,.508,6.932c.056,2.109.052,4.22,0,5.754ZM9.434,29.609l.472-2.784a11.622,11.622,0,0,0,2.792.388,15.946,15.946,0,0,0,2-.1v-.844l-1.519-.135a4.45,4.45,0,0,1-2.825-.987,3.3,3.3,0,0,1-.768-2.37,3.806,3.806,0,0,1,.936-2.969A4.878,4.878,0,0,1,13.7,19a17.791,17.791,0,0,1,4.049.422l-.422,2.7a16.65,16.65,0,0,0-2.513-.252,12.791,12.791,0,0,0-1.6.084v.826l1.215.118a5.062,5.062,0,0,1,3.053,1.054,3.117,3.117,0,0,1,.844,2.32,4.93,4.93,0,0,1-.287,1.8,3.055,3.055,0,0,1-.683,1.114,2.6,2.6,0,0,1-1.121.581A6.657,6.657,0,0,1,14.959,30q-.547.043-1.459.043A17.856,17.856,0,0,1,9.434,29.609Zm9.734,0,.472-2.784a11.622,11.622,0,0,0,2.792.388,15.946,15.946,0,0,0,2-.1v-.844l-1.519-.135a4.45,4.45,0,0,1-2.825-.987,3.3,3.3,0,0,1-.768-2.37,3.806,3.806,0,0,1,.936-2.969,4.878,4.878,0,0,1,3.18-.81,17.791,17.791,0,0,1,4.049.422l-.422,2.7a16.65,16.65,0,0,0-2.513-.252,12.791,12.791,0,0,0-1.6.084v.826l1.215.118a5.062,5.062,0,0,1,3.053,1.054,3.116,3.116,0,0,1,.844,2.32,4.93,4.93,0,0,1-.287,1.8,3.055,3.055,0,0,1-.683,1.114,2.6,2.6,0,0,1-1.121.581A6.657,6.657,0,0,1,24.693,30c-.365.028-.852.043-1.459.043A17.85,17.85,0,0,1,19.168,29.609Zm10.156.185V19.251h4.724q2.85,0,3.913,1.214a6.143,6.143,0,0,1,1.063,4.057,6.143,6.143,0,0,1-1.063,4.057q-1.062,1.215-3.913,1.214H29.324ZM34.1,21.95H32.7v5.145h1.4a2.347,2.347,0,0,0,1-.16q.311-.161.311-.734V22.844q0-.574-.311-.734A2.347,2.347,0,0,0,34.1,21.95Zm1.58-19.685H12.658A7.127,7.127,0,0,0,7.617,4.32l-.005.005A8.626,8.626,0,0,0,5.134,9.732L2.778,36.263h42.9L43.208,9.736a8.718,8.718,0,0,0-2.5-5.413,7.08,7.08,0,0,0-5.028-2.058ZM7.387,49.315H16.18v3.122H7.387Z" transform="translate(0)" fill="#a5a5a5" fill-rule="evenodd"/>
</svg>
