<svg xmlns="http://www.w3.org/2000/svg" width="65.182" height="65.181" viewBox="0 0 65.182 65.181">
  <g id="dvd-disk-icon" transform="translate(0.001)">
    <path id="Контур_20820" data-name="Контур 20820" d="M32.591,0A32.59,32.59,0,1,1,0,32.59,32.592,32.592,0,0,1,32.591,0Zm0,30.05A2.541,2.541,0,1,1,30.05,32.59a2.541,2.541,0,0,1,2.541-2.541Zm0-7.776A10.317,10.317,0,1,1,22.279,32.59,10.318,10.318,0,0,1,32.591,22.273ZM7.209,26.5a32.277,32.277,0,0,1,20.035-19.3l.828,2.5a29.636,29.636,0,0,0-18.4,17.717L7.209,26.5Zm8.238,1.926A20.234,20.234,0,0,1,28.029,16.3l.822,2.5A17.627,17.627,0,0,0,17.908,29.339l-2.461-.918Zm34.564,7.935A20.234,20.234,0,0,1,37.429,48.477l-.822-2.5A17.627,17.627,0,0,0,47.549,35.439l2.461.918Zm8.238,1.926a32.277,32.277,0,0,1-20.035,19.3l-.828-2.5a29.636,29.636,0,0,0,18.4-17.717l2.467.918Z" transform="translate(-0.001)" fill="#a5a5a5" fill-rule="evenodd"/>
  </g>
</svg>
