<svg xmlns="http://www.w3.org/2000/svg" width="32.079" height="63.65" viewBox="0 0 32.079 63.65">
  <g id="computer-cpu-icon" transform="translate(0)">
    <path id="Контур_20821" data-name="Контур 20821" d="M3.455,0H28.624a3.464,3.464,0,0,1,3.455,3.455v56.74a3.464,3.464,0,0,1-3.455,3.455H3.455A3.464,3.464,0,0,1,0,60.195V3.455A3.464,3.464,0,0,1,3.455,0ZM24.532,14.3h2.507v1.43H24.532V14.3ZM16.037,49.348A3.755,3.755,0,1,1,12.281,53.1a3.758,3.758,0,0,1,3.755-3.755ZM4.677,11.028H27.4a.722.722,0,0,1,.72.72v3.906a.725.725,0,0,1-.72.72H4.677a.722.722,0,0,1-.72-.72V11.748a.722.722,0,0,1,.72-.72Z" transform="translate(0)" fill="#a5a5a5" fill-rule="evenodd"/>
  </g>
</svg>
