<svg xmlns="http://www.w3.org/2000/svg" width="201.965" height="264.295" viewBox="0 0 201.965 264.295">
  <g id="configurator-mask" transform="translate(-0.019 -0.016)">
    <path id="Контур_20786" data-name="Контур 20786" d="M139.093,13.31c-6.555-3.9-10.458-6.408-13.478-8.029s-8.838-3.936-11.563-4.25S102.489,2.924,92.1,4.987,21.254,18.98,18.086,19.569s-2.946,1.62-5.818,3.536-4.787,3.166-6.113,4.787a14.675,14.675,0,0,0-2.946,5.67c-.81,2.652-1.93,7.321-2.136,8.277s.6,1.274,1.161,1.593a1.588,1.588,0,0,0,1.05.206,30.062,30.062,0,0,0-.818,7.29c.042,4.08-.084,23.344-.084,29.526V205.8a55.159,55.159,0,0,0,1.094,8.286c-.968,0-1.472-.084-1.935.294s-.624.421-.5,1.6a89.48,89.48,0,0,0,2.268,10.6,9.647,9.647,0,0,0,3.407,5.09c2.019,1.556,6.033,4.618,7.606,5.481s3.856,2.029,17,5.429,45.69,11.719,50.773,13.162,21.092,5.884,24.939,6.8,7.987,1.486,12.93-.465a85.965,85.965,0,0,0,12.717-6.147c5.659-3.155,12.587-6.993,14.506-8.164q1.434-.873,2.862-1.756l8.206-1.484s9.047,2.28,13.464,3.348,9.972,2.921,13.249.784a97.32,97.32,0,0,0,8.9-6.816c2.318-1.944,2.766-2.093,3.178-2.579s2.018-3.4,2.616-4.449.748-1.346.337-1.682a7.723,7.723,0,0,1-.735-.789c-.228-.213-.3-.44-.774-.152s-3.427,2.093-4.231,2.684a12.866,12.866,0,0,0-2.426,2.609c-.607.864-1.229,1.835-1.229,1.835H187.3s7.067-5.854,7.7-6.339a4.3,4.3,0,0,0,1.562-2.533,38.457,38.457,0,0,0,1.7-6.006,8.4,8.4,0,0,0,.91-4.292V42.018a9.055,9.055,0,0,0-.293-2.539q-.37-1.452-.761-2.9c-.169-.614-.5-.676-.764-1.794a29.455,29.455,0,0,0-.858-2.88,7.71,7.71,0,0,0-1.525-1.525c.77.44,3.208,1.635,3.884,2.013s.881.44,1.274.016.551-.567.739-.771.236-.566-.267-1.526-1.761-3.6-2.155-4.466a5.375,5.375,0,0,0-1.73-2.186c-.975-.818-5.394-4.34-7.077-5.646a28,28,0,0,0-4.907-3.57,10.812,10.812,0,0,0-6.526-.755c-2.721.456-20.1,3.266-20.1,3.266l-19.017-3.448Z" fill="none" stroke="#df4128" stroke-miterlimit="10" stroke-width="2"/>
    <path id="Контур_20787" data-name="Контур 20787" d="M12.805,231.16l2.386-6.2-6.43-4.275S11.38,228.94,12.805,231.16Zm12.783-2.93-2.182,5.929,67.51,16.835a10.244,10.244,0,0,0,4.335-2.075q1.927-1.676,3.8-3.415L25.588,228.23ZM186.309,23.508l8.664,6.873a26.339,26.339,0,0,1-2.7-3.541c-1.206-1.936-2.062-3.332-2.062-3.332ZM99.234,17.493,25.926,30.255s-2.09-5.07-1.834-5.477c.535-.1,65.335-12.073,66.43-12.252a4.046,4.046,0,0,1,3.134.51A26.4,26.4,0,0,1,99.234,17.493ZM13.172,27.4,8.981,37.25a44.342,44.342,0,0,0,6.473-4.242c-1.34-3.372-2.282-5.6-2.282-5.6ZM150.045,246.008a2.065,2.065,0,0,0,0-1.744c-.433-.953-.092-1.021-2.511-1.4a36.157,36.157,0,0,0-5.824-.409c-.92.034-1.7.375-3.611,1.26s-11.139,5.553-14.545,7.052a45.109,45.109,0,0,1-11.173,3.61,32.045,32.045,0,0,1-12.944-.954c-5.246-1.362-8.523-2.432-8.523-2.432M8.762,220.686s-2.122-.725-2.7-1.7a18.9,18.9,0,0,1-1.037-2.041,6.8,6.8,0,0,1-1.544-2.866" fill="none" stroke="#df4128" stroke-miterlimit="10" stroke-width="2"/>
    <path id="Контур_20788" data-name="Контур 20788" d="M5.02,216.949l.933.437A3.038,3.038,0,0,0,7.882,218.8c1.406.362,109.682,24.548,112.495,25.231s4.66.884,7.312-.281,14.223-6.79,17.437-8.6,5.83-2.988,5.83-11.657v-41.1s1.914-2.505,2.4-3.253.861-1.16.861-5.914V92.141c0-2.738-.077-3.487-1.374-5.127a29.442,29.442,0,0,0-1.945-2.288V43.986c0-5.206.538-9.535-5.307-12.857s-13.9-7.52-15.85-8.428-4.445-2.284-9.933-1.368S10.969,38.762,8.981,39.171,7.1,39.241,6.2,40.346a4.184,4.184,0,0,0-2.914,3.292" fill="none" stroke="#df4128" stroke-miterlimit="10" stroke-width="2"/>
    <path id="Контур_20789" data-name="Контур 20789" d="M126.1,21.332a5.655,5.655,0,0,0-2.166,4.614V239.828a12.875,12.875,0,0,0,1.083,4.7m-34.492-232c8.47-1.641,15.951-4.007,23.5-1.641s18.225,8.466,21.742,10.148,4.569,2.584,5.679,2.794a26.648,26.648,0,0,0,5.852-.15c2.25-.24,2.76-.45,3-1.2s.811-1.771-.84-2.761-10.359-6.405-10.359-6.405m19.022,3.45s21.717,3.686,23.359,3.98,3.116,1.4,4.836,2.772" fill="none" stroke="#df4128" stroke-miterlimit="10" stroke-width="2"/>
    <path id="Контур_20790" data-name="Контур 20790" d="M190.209,23.51c-1.625-2.72-3.537-6.263-6.054-7.429s-4.894-1.4-8.483-.792S161.894,17.4,161.894,17.4m-11.731,5.376c2.445,1.491,8.353,5.4,9.881,6.43s4.879,3.673,4.879,12.108V225.767c0,6.013-2.755,10.073-5.988,11.927s-9.654,5.53-9.654,5.53m8.969,1.3,24.335-4.567s-1.2,1.435-2.182,2.493-1.926,1.171-3.851.772-5.137-1.169-5.137-1.169" fill="none" stroke="#df4128" stroke-miterlimit="10" stroke-width="2"/>
    <path id="Контур_20791" data-name="Контур 20791" d="M187.3,239.316s-2.647,2.222-3.912,3.135a7.231,7.231,0,0,1-5.285.982" fill="none" stroke="#df4128" stroke-miterlimit="10" stroke-width="2"/>
    <path id="Контур_20792" data-name="Контур 20792" d="M190.6,239.316c-2.51,3.474-5.327,8.323-8.559,8.646a21.085,21.085,0,0,1-8.82-.785c-3.648-.97-12.822-3.056-12.822-3.056M150.445,22.035a21.112,21.112,0,0,0,6.966,2.6c2.9.468,25.27,4.185,27.145,4.466s3-.218,1.751-2.03q-2.128-3.093-4.246-6.2m-7.417,110.262v3.851a1.734,1.734,0,0,0,.813,1.48l2.815,1.72a1.663,1.663,0,0,0,1.8-.011l2.72-1.811a1.74,1.74,0,0,0,.776-1.45v-3.707a1.733,1.733,0,0,0-.776-1.45l-2.72-1.811a1.668,1.668,0,0,0-1.8-.011l-2.815,1.72a1.73,1.73,0,0,0-.813,1.48Z" fill="none" stroke="#df4128" stroke-miterlimit="10" stroke-width="2"/>
  </g>
</svg>
