<svg xmlns="http://www.w3.org/2000/svg" width="21.126" height="25.156" viewBox="0 0 21.126 25.156">
  <path id="Контур_20830" data-name="Контур 20830" d="M3.513,0H20.449a.68.68,0,0,1,.678.678v18.9c-.031.528-.712.54-1.45.508H3.263a1.853,1.853,0,0,0,0,3.706H19.677V21.82h1.45v2.506a.831.831,0,0,1-.829.829H3.335A3.342,3.342,0,0,1,0,21.822V3.513A3.523,3.523,0,0,1,3.513,0Zm7.651,2.876a7.432,7.432,0,1,1-7.432,7.432,7.431,7.431,0,0,1,7.432-7.432Zm-.416,4.631a1.272,1.272,0,0,0,.42.066,1.309,1.309,0,0,0,.43-.066.907.907,0,0,0,.317-.188.747.747,0,0,0,.2-.278.951.951,0,0,0,.07-.377.975.975,0,0,0-.07-.383.77.77,0,0,0-.2-.283l0,0a.925.925,0,0,0-.317-.19,1.309,1.309,0,0,0-.43-.066,1.234,1.234,0,0,0-.418.066.9.9,0,0,0-.311.188L10.429,6a.788.788,0,0,0-.2.283.968.968,0,0,0-.07.383.951.951,0,0,0,.07.377.78.78,0,0,0,.188.266s.01.006.012.01a.889.889,0,0,0,.317.188v0ZM9.44,13.848v1.03h3.483v-1.03h-.078a.44.44,0,0,1-.217-.059.605.605,0,0,1-.16-.125.669.669,0,0,1-.125-.164.447.447,0,0,1-.059-.213V9.2a.711.711,0,0,0-.059-.346.077.077,0,0,0-.072-.037H9.4V9.942H9.52a.448.448,0,0,1,.219.063.537.537,0,0,1,.143.117.124.124,0,0,1,.016.016.719.719,0,0,1,.117.16.457.457,0,0,1,.053.207v2.782a.453.453,0,0,1-.047.194l-.01.018a.719.719,0,0,1-.117.16.74.74,0,0,1-.158.129.43.43,0,0,1-.219.059H9.44Z" fill="#df4128" fill-rule="evenodd"/>
</svg>
