<svg xmlns="http://www.w3.org/2000/svg" width="27.702" height="20.088" viewBox="0 0 27.702 20.088">
  <path id="Контур_21972" data-name="Контур 21972" d="M2.259,9.031H16.337a3.778,3.778,0,0,0,7.1,0h4a1.259,1.259,0,0,0,0-2.518h-4a3.778,3.778,0,0,0-7.1,0H2.259a1.259,1.259,0,0,0,0,2.518ZM19.888,6.512a1.259,1.259,0,1,1-1.259,1.259A1.259,1.259,0,0,1,19.888,6.512ZM27.443,19.1H13.365a3.778,3.778,0,0,0-7.1,0h-4a1.259,1.259,0,0,0,0,2.518h4a3.778,3.778,0,0,0,7.1,0H27.443a1.259,1.259,0,0,0,0-2.518ZM9.814,21.622a1.259,1.259,0,1,1,1.259-1.259A1.259,1.259,0,0,1,9.814,21.622Z" transform="translate(-1 -4.024)" fill="#fff"/>
</svg>
