<svg xmlns="http://www.w3.org/2000/svg" width="16" height="16" viewBox="0 0 16 16">
  <path id="Контур_20616" data-name="Контур 20616" d="M17.958,9.8a.528.528,0,0,0-.115-.173L15.71,7.49a.533.533,0,1,0-.754.754l1.224,1.222H10.533V3.821l1.222,1.222a.533.533,0,1,0,.754-.754L10.377,2.156l-.005,0A.536.536,0,0,0,10,2h0a.533.533,0,0,0-.369.153l-.006,0L7.489,4.289a.533.533,0,1,0,.754.754L9.467,3.821V9.467H3.821L5.043,8.244a.533.533,0,1,0-.754-.754L2.156,9.623l0,.005A.536.536,0,0,0,2,10v0a.533.533,0,0,0,.153.369l0,.006,2.133,2.133a.533.533,0,1,0,.754-.754L3.821,10.533H9.467v5.646L8.244,14.957a.533.533,0,1,0-.754.754l2.133,2.133A.528.528,0,0,0,10,18h0a.52.52,0,0,0,.2-.042.528.528,0,0,0,.173-.115L12.51,15.71a.533.533,0,1,0-.754-.754l-1.222,1.224V10.533h5.646l-1.222,1.222a.533.533,0,1,0,.754.754l2.133-2.133A.528.528,0,0,0,18,10v0A.52.52,0,0,0,17.958,9.8Z" transform="translate(-2 -2)" fill="#df4128"/>
</svg>
