<svg xmlns="http://www.w3.org/2000/svg" width="102.593" height="24.215" viewBox="0 0 102.593 24.215">
  <g id="Сгруппировать_1618" data-name="Сгруппировать 1618" transform="translate(-67.484 -57.148)">
    <path id="Контур_21982" data-name="Контур 21982" d="M-41.2-9.108l-.486-3.492H-50.4l-.486,3.492h2.97V0h3.744V-9.108Zm4.662,5.85V-4.734h3.528V-7.992H-36.54v-1.35h4.392L-32.6-12.6H-40.23V0h7.794l.45-3.258ZM-20.376,0l-2.9-5.13a3.7,3.7,0,0,0,2.2-3.474c0-2.286-1.638-4-4.788-4h-4.752V0h3.708V-4.716L-24.714,0ZM-26.91-6.912V-9.648h.432c1.08,0,1.656.558,1.656,1.368s-.576,1.368-1.656,1.368ZM-11.286,0h4l-4.23-12.6h-4.446L-20.2,0h4l.576-2.088h3.762Zm-3.492-5.256,1.044-3.78,1.026,3.78ZM-2.592-9.234H1.566L1.1-12.6H-6.336V0h3.744V-4.392H.756V-7.758H-2.592ZM6.534-3.6v-9H2.79V0h7.362l.5-3.6Zm29.106-9H30.924V0h3.744V-3.312h.972a4.664,4.664,0,0,0,4.968-4.662A4.646,4.646,0,0,0,35.64-12.6Zm-.432,6.156h-.54V-9.468h.54a1.513,1.513,0,0,1,1.656,1.494A1.53,1.53,0,0,1,35.208-6.444ZM45.81.288c3.312,0,4.644-2.142,4.644-4.158,0-1.584-.846-3.168-3.312-3.978l-.72-.234c-.918-.288-1.188-.594-1.188-.972,0-.36.252-.684.936-.684A8.478,8.478,0,0,1,49.536-8.73L50-12.042a9.675,9.675,0,0,0-3.744-.846c-2.772,0-4.554,1.746-4.554,4.05a4.005,4.005,0,0,0,3.114,3.96l.72.234c1.08.36,1.278.666,1.278,1.044,0,.324-.234.7-1.08.7A7.079,7.079,0,0,1,41.9-4.3L41.436-.936A8.893,8.893,0,0,0,45.81.288Z" transform="translate(118.37 74.097)" fill="#fff"/>
    <path id="_3ccac41f36a49d0043a203421a73c2c3" data-name="3ccac41f36a49d0043a203421a73c2c3" d="M228.7,124.35v1.4h-1.865v-.94a.142.142,0,0,0-.142-.142h-1.765a.142.142,0,0,0-.142.142v.94h-2.272v-.94a.142.142,0,0,0-.142-.142h-3.114a.142.142,0,0,0-.142.142v.94H212.5v.854h1.192v17.175a.428.428,0,0,0,.125.3l2.222,2.222a.428.428,0,0,0,.3.125h8.944a.428.428,0,0,0,.3-.125l2.222-2.222a.428.428,0,0,0,.125-.3V126.6h1.192a.427.427,0,0,0,.427-.427V124.35Zm-3.356,11.091a5.179,5.179,0,0,0-3.159-.648,1.6,1.6,0,0,0-.224-.291,4.32,4.32,0,0,1,2.585-1.473A4.52,4.52,0,0,1,225.344,135.441Zm-4.143-1.377a1.589,1.589,0,0,0-.364-.048,4.322,4.322,0,0,1,.782-2.864,4.5,4.5,0,0,1,2.282,1.134A5.173,5.173,0,0,0,221.2,134.064Zm-1.211.18-.005,0a1.6,1.6,0,0,0-.286.221,4.323,4.323,0,0,1-1.471-2.576,4.544,4.544,0,0,1,2.411-.808A5.175,5.175,0,0,0,219.991,134.244Zm.434,2.924a1.592,1.592,0,0,0,.364.047,4.32,4.32,0,0,1-.783,2.864,4.508,4.508,0,0,1-2.282-1.134A5.177,5.177,0,0,0,220.425,137.167Zm1.211-.18,0,0a1.594,1.594,0,0,0,.286-.222,4.322,4.322,0,0,1,1.471,2.576,4.543,4.543,0,0,1-2.411.807A5.181,5.181,0,0,0,221.636,136.987Zm-4.15-4.452a5.176,5.176,0,0,0,1.775,2.692,1.6,1.6,0,0,0-.048.364,4.319,4.319,0,0,1-2.864-.783,4.494,4.494,0,0,1,.78-1.838A4.54,4.54,0,0,1,217.486,132.535Zm-1.2,3.255a5.172,5.172,0,0,0,3.159.649,1.582,1.582,0,0,0,.225.291,4.326,4.326,0,0,1-2.585,1.473A4.522,4.522,0,0,1,216.283,135.79Zm7.858,2.906A5.18,5.18,0,0,0,222.365,136a1.59,1.59,0,0,0,.047-.364,4.318,4.318,0,0,1,2.864.783,4.513,4.513,0,0,1-1.136,2.274Zm-1.59-12.1h.854v1.2h-.854Zm-2.164,0h.854v1.2h-.854Zm-2.164,0h.854v1.2h-.854Zm-2.534,2.674-1.143,1.143V126.6h1.143Zm7.4,16.011h-4.555v-1.6a.389.389,0,0,1,.389-.389H222.7a.389.389,0,0,1,.389.389Zm3.99-14.869-1.143-1.143V126.6h1.143Z" transform="translate(-80.564 -67.202)" fill="#df4128"/>
    <path id="Контур_5" data-name="Контур 5" d="M786.073,453.745h60.884l4.013,4.428h11.762l4.289-4.428h19.926" transform="translate(-716.869 -377.311)" fill="none" stroke="#fff" stroke-width="1"/>
  </g>
</svg>
