<svg xmlns="http://www.w3.org/2000/svg" width="72.132" height="72.988" viewBox="0 0 72.132 72.988">
  <g id="Сгруппировать_2752" data-name="Сгруппировать 2752" transform="translate(-1.981 0.976)">
    <path id="Контур_20775" data-name="Контур 20775" d="M176.881.024H145.66a14.216,14.216,0,0,0-14.2,14.2V43.367a3.351,3.351,0,0,0,6.255,1.672l5.513-9.587h26.357a14.216,14.216,0,0,0,14.2-14.2V6.928A6.912,6.912,0,0,0,176.881.024Zm4.687,21.228a12,12,0,0,1-11.983,11.983h-27a1.111,1.111,0,0,0-.961.555l-5.833,10.143a1.133,1.133,0,0,1-2.115-.566V14.225A12,12,0,0,1,145.66,2.241h31.222a4.692,4.692,0,0,1,4.687,4.687V21.252Z" transform="translate(-110.672)" fill="#fff" stroke="#fff" stroke-width="2"/>
    <path id="Контур_20776" data-name="Контур 20776" d="M61.891,22.229H32.008a1.109,1.109,0,0,0,0,2.217H61.891a1.109,1.109,0,0,0,0-2.217Zm0,6.75H32.008a1.109,1.109,0,0,0,0,2.217H61.891a1.109,1.109,0,0,0,0-2.217Zm-7.726,6.749H32.008a1.109,1.109,0,0,0,0,2.217H54.166a1.109,1.109,0,1,0,0-2.217ZM68.3,52.655H48.327a9.493,9.493,0,0,0-9.481,9.481v18.64a2.543,2.543,0,0,0,4.746,1.268L47,76.114H63.63a9.493,9.493,0,0,0,9.483-9.481V57.47A4.82,4.82,0,0,0,68.3,52.655Zm2.6,13.978A7.273,7.273,0,0,1,63.63,73.9H46.361a1.11,1.11,0,0,0-.961.556l-3.731,6.486a.323.323,0,0,1-.606-.162V62.137a7.272,7.272,0,0,1,7.264-7.264H68.3a2.6,2.6,0,0,1,2.6,2.6v9.163ZM18.023,14.359H4.09a1.109,1.109,0,1,0,0,2.217H18.023a1.109,1.109,0,1,0,0-2.217Zm0,7.549H7.887a1.109,1.109,0,0,0,0,2.217H18.023a1.109,1.109,0,1,0,0-2.217Zm0,7.549H10.649a1.109,1.109,0,1,0,0,2.217h7.374a1.109,1.109,0,1,0,0-2.217Zm0,7.549h-3.9a1.109,1.109,0,1,0,0,2.217h3.9a1.109,1.109,0,1,0,0-2.217Z" transform="translate(0 -12.348)" fill="#fff" stroke="#fff" stroke-width="2"/>
    <path id="Контур_20777" data-name="Контур 20777" d="M331.713,367.32h-.643a1.109,1.109,0,1,0,0,2.217h.643a1.109,1.109,0,0,0,0-2.217Zm6.251,0h-.642a1.109,1.109,0,0,0,0,2.217h.642a1.109,1.109,0,0,0,0-2.217Zm6.252,0h-.642a1.109,1.109,0,1,0,0,2.217h.642a1.109,1.109,0,1,0,0-2.217Z" transform="translate(-281.664 -316.393)" fill="#fff" stroke="#fff" stroke-width="2"/>
  </g>
</svg>
