<svg xmlns="http://www.w3.org/2000/svg" width="73.165" height="73.033" viewBox="0 0 73.165 73.033">
  <path id="Контур_20780" data-name="Контур 20780" d="M32.742,13.56a1.736,1.736,0,0,0,2.453,0l5.322-5.322a1.04,1.04,0,0,0-1.47-1.47l-5.076,5.078L32.221,10.1a1.04,1.04,0,0,0-1.47,1.47Zm2.892,7.258A10.409,10.409,0,1,0,25.224,10.409,10.409,10.409,0,0,0,35.634,20.818Zm0-18.74A8.331,8.331,0,1,1,27.3,10.409a8.331,8.331,0,0,1,8.331-8.331Zm33.7,30.849L58.583,43.522a2.67,2.67,0,0,1-3.78,0l-10.6-10.6a2.654,2.654,0,0,1-.636-1.014.242.242,0,0,0-.017-.044,2.658,2.658,0,0,1,.65-2.724l26.6-26.328A1.045,1.045,0,0,0,69.336,1.33l-26.6,26.337a4.785,4.785,0,0,0-1.386,3.542H40.219a6.7,6.7,0,0,0-4.988,2.232l-.123.139a13.5,13.5,0,0,0-5.325-1.373,4.753,4.753,0,0,0-1.247-4.538l-26.6-26.5A1.039,1.039,0,0,0,.467,2.644l26.6,26.494a2.683,2.683,0,0,1,0,3.787l-10.6,10.6a2.683,2.683,0,0,1-3.786,0L1.936,32.734A1.039,1.039,0,0,0,.464,34.2L11.213,44.993a4.746,4.746,0,0,0,3.363,1.386,4.861,4.861,0,0,0,1.172-.147,13.666,13.666,0,0,0,.186,1.677,4.12,4.12,0,0,0-1.117.8l-2.038,2.042A4.136,4.136,0,0,0,15.7,57.814c.085,0,.168,0,.252-.008,0,.083-.008.166-.008.251a4.135,4.135,0,0,0,4.135,4.136c.086,0,.17,0,.255-.008a4.132,4.132,0,0,0,4.125,4.388,2.217,2.217,0,0,0,.254-.01,4.135,4.135,0,0,0,7.05,3.177l1.264-1.264,1.264,1.264a4.136,4.136,0,0,0,7.06-2.925c0-.085,0-.169-.008-.254.083,0,.168.008.251.008a4.132,4.132,0,0,0,4.136-4.133q0-.129-.008-.254c.085,0,.168.008.252.008a4.132,4.132,0,0,0,4.136-4.135c0-.085,0-.169-.008-.254.083,0,.168.008.251.008a4.135,4.135,0,0,0,2.925-7.059l-1.038-1.038a13.653,13.653,0,0,0,3.18-3.5,4.8,4.8,0,0,0,1.271.172,4.711,4.711,0,0,0,3.355-1.386L70.795,34.416a1.039,1.039,0,0,0-1.458-1.48ZM15.7,55.73a2.058,2.058,0,0,1-1.455-3.513l2.04-2.04a2.058,2.058,0,1,1,2.91,2.91l-2.04,2.04a2.045,2.045,0,0,1-1.455.6Zm5.834,3.776a2.058,2.058,0,1,1-2.91-2.91l2.043-2.038a2.058,2.058,0,1,1,2.91,2.91Zm4.38,4.38a2.058,2.058,0,0,1-2.91,0l-.734.734.734-.734a2.06,2.06,0,0,1,0-2.91l2.04-2.04a2.058,2.058,0,1,1,2.91,2.91Zm6.418,2.339-2.04,2.04a2.056,2.056,0,0,1-2.91,0L26.649,69l.734-.734a2.062,2.062,0,0,1,0-2.91l2.04-2.038a2.058,2.058,0,1,1,2.91,2.91ZM52.411,53.672A2.058,2.058,0,0,1,48.9,55.127l-6.651-6.651a1.04,1.04,0,0,0-1.47,1.47L47.43,56.6a2.058,2.058,0,1,1-2.91,2.91l-6.651-6.651a1.039,1.039,0,1,0-1.476,1.462l6.651,6.651a2.058,2.058,0,1,1-2.91,2.91l-6.651-6.651a1.039,1.039,0,1,0-1.47,1.469l6.651,6.651a2.058,2.058,0,1,1-2.91,2.91l-1.345-1.346a4.136,4.136,0,0,0-3.536-6.284c-.085,0-.168,0-.252.008,0-.085.008-.168.008-.252A4.135,4.135,0,0,0,26.5,56.258c-.085,0-.169,0-.252.008,0-.083.008-.168.008-.251a4.135,4.135,0,0,0-4.136-4.136c-.085,0-.168,0-.251.008,0-.083.008-.168.008-.252a4.139,4.139,0,0,0-3.906-4.129,11.347,11.347,0,0,1-.148-2.4l.114-.109,10.6-10.6c.037-.037.072-.076.108-.115a11.362,11.362,0,0,1,5.009.915l-5.78,6.457a3,3,0,0,0,.114,4.117,5.387,5.387,0,0,0,7.611,0l4.884-4.879.382.382L51.813,52.22a2.04,2.04,0,0,1,.6,1.452Zm.326-7.3a11.792,11.792,0,0,1-1.977,1.858L46.58,44.05l-5.214-5.214-.15-.148a1.038,1.038,0,0,0-1.469,0L34.134,44.3a3.308,3.308,0,0,1-4.671,0,.916.916,0,0,1-.035-1.261l7.344-8.211a4.624,4.624,0,0,1,3.443-1.539h1.689a4.711,4.711,0,0,0,.831,1.109l10.6,10.6c.083.082.168.159.255.236a12,12,0,0,1-.851,1.14Z" transform="translate(0.925 1)" fill="#fff" stroke="#fff" stroke-width="2"/>
</svg>
