<svg xmlns="http://www.w3.org/2000/svg" width="70.951" height="70.951" viewBox="0 0 70.951 70.951">
  <path id="Контур_20778" data-name="Контур 20778" d="M74.951,24.694A20.692,20.692,0,0,0,54.254,4H24.694A20.692,20.692,0,0,0,4,24.7v29.56A20.692,20.692,0,0,0,24.7,74.951h29.56a20.692,20.692,0,0,0,20.694-20.7Zm-5.913,0V54.257A14.777,14.777,0,0,1,54.257,69.039H24.694A14.777,14.777,0,0,1,9.913,54.257V24.694A14.777,14.777,0,0,1,24.694,9.913H54.257A14.777,14.777,0,0,1,69.039,24.694ZM21.756,48.327H18.781a2.956,2.956,0,1,0,0,5.913h2.974v2.974a2.956,2.956,0,0,0,5.913,0V54.239h2.974a2.956,2.956,0,1,0,0-5.913H27.668V45.353a2.956,2.956,0,1,0-5.913,0v2.974ZM48.309,60.134H60.17a2.956,2.956,0,1,0,0-5.913H48.309a2.956,2.956,0,0,0,0,5.913Zm0-11.825H60.17a2.956,2.956,0,1,0,0-5.913H48.309a2.956,2.956,0,0,0,0,5.913Zm5.93-24.839L50.4,19.63a2.956,2.956,0,1,0-4.181,4.181l3.841,3.84-3.84,3.84A2.956,2.956,0,1,0,50.4,35.671l3.84-3.841,3.84,3.84A2.956,2.956,0,1,0,62.26,31.49L58.42,27.65l3.84-3.84a2.956,2.956,0,1,0-4.181-4.181l-3.84,3.841ZM18.781,30.589H30.642a2.956,2.956,0,1,0,0-5.913H18.781a2.956,2.956,0,1,0,0,5.913Z" transform="translate(-4 -4)" fill="#fff" fill-rule="evenodd"/>
</svg>
