<svg xmlns="http://www.w3.org/2000/svg" width="13.5" height="16.75" viewBox="0 0 13.5 16.75">
  <g id="trash-svgrepo-com_1_" data-name="trash-svgrepo-com (1)" transform="translate(-5.25 -3.25)">
    <path id="Контур_20827" data-name="Контур 20827" d="M5.25,6.909A.75.75,0,0,1,6,6.159H18a.75.75,0,0,1,0,1.5H6A.75.75,0,0,1,5.25,6.909Z" fill="#fff" fill-rule="evenodd"/>
    <path id="Контур_20828" data-name="Контур 20828" d="M11.333,4.75A1.25,1.25,0,0,0,10.083,6v.909h-1.5V6a2.75,2.75,0,0,1,2.75-2.75h1.333A2.75,2.75,0,0,1,15.417,6v.909h-1.5V6a1.25,1.25,0,0,0-1.25-1.25Z" fill="#fff" fill-rule="evenodd"/>
    <path id="Контур_20829" data-name="Контур 20829" d="M6,6.909,8,20h8L18,6.909Zm6.5,3.636a.5.5,0,0,0-1,0v5.818a.5.5,0,0,0,1,0Zm-3.224-.5a.476.476,0,0,1,.549.423l.667,5.818a.525.525,0,0,1-.435.575.477.477,0,0,1-.549-.423l-.667-5.818A.525.525,0,0,1,9.276,10.047Zm5.882.575a.525.525,0,0,0-.435-.575.476.476,0,0,0-.549.423l-.667,5.818a.525.525,0,0,0,.435.575.476.476,0,0,0,.549-.423Z" fill="#fff" fill-rule="evenodd"/>
  </g>
</svg>
