<svg xmlns="http://www.w3.org/2000/svg" width="27" height="26.402" viewBox="0 0 27 26.402">
    <g id="Сгруппировать_1641" data-name="Сгруппировать 1641" transform="translate(-2 -2.42)">
        <path id="Контур_36" data-name="Контур 36" d="M14.736,10.553,6.349,25.139a2.326,2.326,0,0,1-3.221.83l-.006,0a2.326,2.326,0,0,1-.757-3.24L11.425,8.5A25.779,25.779,0,0,1,14.736,10.553ZM26.661,11.81l-.615-.733a.478.478,0,0,1,.059-.674L27.6,9.151a.478.478,0,0,1,.674.059l.616.733a.478.478,0,0,1-.059.674L27.336,11.87A.48.48,0,0,1,26.661,11.81ZM24.5,10.192h-.957a.479.479,0,0,1-.479-.479V7.46a.479.479,0,0,1,.479-.479H24.5a.479.479,0,0,1,.479.479V9.713A.479.479,0,0,1,24.5,10.192Zm-.479,12.6a.479.479,0,0,1-.479.479H21.146v-.957h2.393A.479.479,0,0,1,24.017,22.794ZM22.582,20.4H21.146v-.957h1.436a.479.479,0,1,1,0,.957Z" transform="translate(0 -0.195)" fill="#a5a5a5"/>
        <path id="Контур_37" data-name="Контур 37" d="M28.558,13.505H25.084l-.128.031-1.793.9a.3.3,0,0,1-.129.03h-.885a12.593,12.593,0,0,0-4.65-8.84l.509-.885a.956.956,0,0,0-.328-1.292l-1.435-.884a.959.959,0,0,0-1.31.3l-.524.822A12.654,12.654,0,0,0,3.12,3.85a.287.287,0,0,0,.12.544c5.93.146,14.07,4.733,17.743,10.069H18.469a.288.288,0,0,0-.239.128l-1.8,2.7a.285.285,0,0,1-.079.079l-2.664,1.776a.287.287,0,0,0-.123.295l.889,4.448a.287.287,0,0,1-.078.259l-4.187,4.187a.288.288,0,0,0,.2.491H28.366a.479.479,0,0,0,.479-.479V13.792A.287.287,0,0,0,28.558,13.505ZM23.436,24.993H23.1v1.436h-.957V24.993h-.957v1.436h-.957V24.993h-.479a.479.479,0,0,1-.479-.479v-6.7a.479.479,0,0,1,.479-.479h.479V15.9h.957v1.436h.957V15.9H23.1v1.485a2.375,2.375,0,0,1,1.751,3.2,2.387,2.387,0,0,1,1.109,2.263A2.5,2.5,0,0,1,23.436,24.993Z" transform="translate(-0.041)" fill="#a5a5a5"/>
    </g>
</svg>