<svg xmlns="http://www.w3.org/2000/svg" width="27" height="21.023" viewBox="0 0 27 21.023">
    <g id="Сгруппировать_1640" data-name="Сгруппировать 1640" transform="translate(-0.109 -56.755)">
        <path id="Контур_31" data-name="Контур 31" d="M199.784,387.028h4.441a.453.453,0,0,0,.419-.283l.406-.954H199l.368.956A.451.451,0,0,0,199.784,387.028Zm14.365-1.8a.088.088,0,0,1-.028,0Z" transform="translate(-188.396 -311.143)" fill="#a5a5a5"/>
        <path id="Контур_32" data-name="Контур 32" d="M26.408,395.91H17.266l-.5,1.167a1,1,0,0,1-.939.632H11.388a1.019,1.019,0,0,1-.942-.639L10,395.91H.81a.7.7,0,0,0-.7.7,1.4,1.4,0,0,0,.011.329,2.961,2.961,0,0,0,2.821,2.1H24.277a2.932,2.932,0,0,0,2.821-2.1,1.491,1.491,0,0,0,.011-.329A.7.7,0,0,0,26.408,395.91Zm-4.243,1.848H21.9a.281.281,0,1,1,0-.562h.262a.281.281,0,1,1,0,.562Zm1.206,0h-.262a.281.281,0,1,1,0-.562h.262a.281.281,0,1,1,0,.562Zm1.206,0h-.262a.281.281,0,1,1,0-.562h.262a.281.281,0,1,1,0,.562Z" transform="translate(0 -321.263)" fill="#a5a5a5"/>
        <g id="Сгруппировать_1639" data-name="Сгруппировать 1639" transform="translate(1.209 56.755)">
            <path id="Контур_33" data-name="Контур 33" d="M44.349,56.755H22.364a1.407,1.407,0,0,0-1.406,1.406V73.807a.283.283,0,0,0,.281.281H45.474a.087.087,0,0,0,.028,0,.279.279,0,0,0,.253-.278V58.161A1.407,1.407,0,0,0,44.349,56.755ZM22.927,59a.282.282,0,0,1,.281-.281h20.3a.28.28,0,0,1,.281.281v12.83a.279.279,0,0,1-.281.281h-20.3a.28.28,0,0,1-.281-.281Z" transform="translate(-20.958 -56.755)" fill="#a5a5a5"/>
        </g>
    </g>
</svg>