<svg xmlns="http://www.w3.org/2000/svg" width="19.628" height="22.368" viewBox="0 0 19.628 22.368">
    <g id="Headphone_game" data-name="Headphone game" transform="translate(-4.68 -3.1)">
        <path id="Контур_34" data-name="Контур 34" d="M16.731,3.1H12.257C8.078,3.1,4.68,6.819,4.68,11.4V18a.867.867,0,0,0,.867.867H6.735a1.925,1.925,0,0,0,1.916-1.916V13.269a1.916,1.916,0,0,0-1.916-1.916H6.414c0-3.6,2.6-6.52,5.843-6.52h4.474c3.208,0,5.817,2.922,5.843,6.52H22.3a1.916,1.916,0,0,0-1.916,1.916v3.685A1.925,1.925,0,0,0,22.3,18.87h.113a6.008,6.008,0,0,1-5.635,4.864h-2.28a.867.867,0,1,0,0,1.734h2.237c3.806,0,6.936-3.1,7.491-7.1A.867.867,0,0,0,24.308,18V11.4C24.308,6.819,20.91,3.1,16.731,3.1Z" transform="translate(0 0)" fill="#a5a5a5"/>
        <path id="Контур_35" data-name="Контур 35" d="M18.156,25.806a.867.867,0,0,0,0-1.734s-.867,0-2.254-.052a.859.859,0,1,0-.035,1.717C17.245,25.806,18.156,25.806,18.156,25.806Z" transform="translate(-1.373 -2.783)" fill="#a5a5a5"/>
    </g>
</svg>