<svg id="Компонент_55_1" data-name="Компонент 55 – 1" xmlns="http://www.w3.org/2000/svg" width="27" height="26.194" viewBox="0 0 27 26.194">
    <g id="Сгруппировать_2636" data-name="Сгруппировать 2636" transform="translate(0 0)">
        <path id="Контур_22" data-name="Контур 22" d="M29.755,32.022H18.609a2.2,2.2,0,0,1-2.4-2.377V18.5c0-1.416.865-3,2.4-3H29.755a3.235,3.235,0,0,1,2.972,3V29.645C32.727,31.045,31.338,32.022,29.755,32.022ZM18.609,17.112c-.523,0-.792.713-.792,1.386V29.645c0,.666.39.765.792.765H29.755c.4,0,1.36-.1,1.36-.765V18.5a1.643,1.643,0,0,0-1.36-1.386Z" transform="translate(-10.682 -10.664)" fill="#a5a5a5"/>
        <path id="Контур_23" data-name="Контур 23" d="M16.6,11.963h-.4a.4.4,0,1,1,0-.806h.4a.4.4,0,0,1,0,.806Zm-5.761,3.224a.4.4,0,0,1-.4-.4v-.937c0-1.322-.284-2.69,1.957-2.69H14.59a.4.4,0,1,1,0,.806H12.4c-1.436,0-1.151.475-1.151,1.884v.937A.4.4,0,0,1,10.844,15.187Zm17.85-3.627H26.679a.806.806,0,1,1,0-1.612h2.015a.806.806,0,0,1,0,1.612Zm0,4.433H26.679a.806.806,0,1,1,0-1.612h2.015a.806.806,0,0,1,0,1.612Zm0,4.03H26.679a.806.806,0,1,1,0-1.612h2.015a.806.806,0,0,1,0,1.612Zm0,3.627H26.679a.806.806,0,1,1,0-1.612h2.015a.806.806,0,0,1,0,1.612ZM10.038,7.127a.806.806,0,0,1-.806-.806V4.306a.806.806,0,1,1,1.612,0V6.321A.806.806,0,0,1,10.038,7.127Zm4.03,0a.806.806,0,0,1-.806-.806V4.306a.806.806,0,1,1,1.612,0V6.321a.806.806,0,0,1-.806.806Zm4.433,0a.806.806,0,0,1-.806-.806V4.306a.806.806,0,1,1,1.612,0V6.321A.806.806,0,0,1,18.5,7.127Zm3.627,0a.806.806,0,0,1-.806-.806V4.306a.806.806,0,1,1,1.612,0V6.321A.806.806,0,0,1,22.127,7.127ZM10.038,29.694a.806.806,0,0,1-.806-.806V26.873a.806.806,0,0,1,1.612,0v2.015A.806.806,0,0,1,10.038,29.694Zm4.03,0a.806.806,0,0,1-.806-.806V26.873a.806.806,0,0,1,1.612,0v2.015a.806.806,0,0,1-.806.806Zm4.433,0a.806.806,0,0,1-.806-.806V26.873a.806.806,0,0,1,1.612,0v2.015A.806.806,0,0,1,18.5,29.694Zm3.627,0a.806.806,0,0,1-.806-.806V26.873a.806.806,0,0,1,1.612,0v2.015A.806.806,0,0,1,22.127,29.694ZM5.321,11.56H3.306a.806.806,0,1,1,0-1.612H5.321a.806.806,0,1,1,0,1.612Zm0,4.433H3.306a.806.806,0,1,1,0-1.612H5.321a.806.806,0,1,1,0,1.612Zm0,4.03H3.306a.806.806,0,1,1,0-1.612H5.321a.806.806,0,1,1,0,1.612Zm0,3.627H3.306a.806.806,0,1,1,0-1.612H5.321a.806.806,0,1,1,0,1.612Z" transform="translate(-2.5 -3.5)" fill="#a5a5a5"/>
    </g>
</svg>