<svg xmlns="http://www.w3.org/2000/svg" width="27" height="22.629" viewBox="0 0 27 22.629">
    <g id="Сгруппировать_1638" data-name="Сгруппировать 1638" transform="translate(0 -5.18)">
        <path id="Контур_9" data-name="Контур 9" d="M6.65,19.41H5.393a.467.467,0,0,0-.472.464v1.24a.473.473,0,0,0,.945,0v-.776h.789a.464.464,0,1,0,0-.928ZM11.4,24.181a.464.464,0,0,0,.27-.084L14.864,21.9a.464.464,0,0,0,.118-.65.476.476,0,0,0-.658-.114l-3.189,2.194a.464.464,0,0,0-.118.65A.474.474,0,0,0,11.4,24.181Zm4.387-.966L12.6,25.409a.464.464,0,0,0-.118.65.474.474,0,0,0,.388.2.464.464,0,0,0,.27-.084l3.189-2.194a.464.464,0,0,0,.118-.65A.476.476,0,0,0,15.792,23.215Zm.3-1.747L10.839,25.08a.464.464,0,0,0-.118.65.474.474,0,0,0,.388.2.464.464,0,0,0,.27-.084l5.252-3.611a.464.464,0,0,0,.118-.65A.485.485,0,0,0,16.091,21.469Z" transform="translate(-2.844 -8.227)" fill="#a5a5a5"/>
        <path id="Контур_10" data-name="Контур 10" d="M27,24.413V8.344A3.2,3.2,0,0,0,23.781,5.18H18.339A3.193,3.193,0,0,0,15.12,8.344v.827H2.464A2.46,2.46,0,0,0,.38,10.3,2.389,2.389,0,0,0,0,11.6v8.378a2.359,2.359,0,0,0,.384,1.3,2.469,2.469,0,0,0,2.084,1.135H9.391v1.924c-2.278.122-3.957.532-3.957,1.021,0,.582,2.388,1.055,5.333,1.055a15.707,15.707,0,0,0,4.717-.561,3.21,3.21,0,0,0,.848,1.025H15.6a.464.464,0,1,0,0,.928H26.523a.464.464,0,1,0,0-.928h-.734A3.139,3.139,0,0,0,27,24.413ZM2.468,21.485a1.53,1.53,0,0,1-1.291-.7,1.471,1.471,0,0,1-.232-.8V11.6a1.453,1.453,0,0,1,.236-.806,1.519,1.519,0,0,1,1.287-.7H15.124V21.485Zm9.674,2.856V22.418h2.983v2a3.109,3.109,0,0,0,.021.346A14.378,14.378,0,0,0,12.142,24.342Zm13.913.072a2.255,2.255,0,0,1-2.274,2.232H18.339a2.255,2.255,0,0,1-2.274-2.232V8.344a2.255,2.255,0,0,1,2.274-2.232h5.442a2.255,2.255,0,0,1,2.274,2.232V24.413Z" fill="#a5a5a5"/>
        <path id="Контур_11" data-name="Контур 11" d="M45.629,21.507a.783.783,0,1,0-.785.776A.784.784,0,0,0,45.629,21.507Zm-.945,0a.16.16,0,1,1,.156.156A.158.158,0,0,1,44.684,21.507Zm2.924-9.53a.778.778,0,1,0-.785-.78A.782.782,0,0,0,47.607,11.977Zm0-.861a.076.076,0,0,1,.076.076c0,.089-.156.089-.156,0A.082.082,0,0,1,47.607,11.116ZM44.844,23.793a1.266,1.266,0,1,0,1.287,1.261A1.276,1.276,0,0,0,44.844,23.793Zm0,1.6a.335.335,0,1,1,0-.671.335.335,0,1,1,0,.671Zm3.232-12.146H41.613a.464.464,0,1,0,0,.928h6.463a.464.464,0,1,0,0-.928ZM47.3,17.17H42.393a.464.464,0,1,0,0,.928h4.9a.464.464,0,1,0,0-.928Z" transform="translate(-23.784 -3.029)" fill="#a5a5a5"/>
    </g>
</svg>