<svg xmlns="http://www.w3.org/2000/svg" width="75" height="66.102" viewBox="0 0 75 66.102">
  <g id="Group_2888" data-name="Group 2888" transform="translate(-999 -690)">
    <rect id="Rectangle_177" data-name="Rectangle 177" width="75" height="66.102" rx="10" transform="translate(999 690)" fill="#fff"/>
    <g id="Group_2885" data-name="Group 2885" transform="translate(1025.005 711)">
      <path id="Path_21982" data-name="Path 21982" d="M17.459,7.249a5.558,5.558,0,0,1,2.656-4.678,5.74,5.74,0,0,0-4.5-2.439C13.705-.06,11.884,1.26,10.912,1.26S8.443.161,6.857.192a6.013,6.013,0,0,0-5.087,3.08C-.4,7.035,1.215,12.607,3.328,15.659c1.031,1.49,2.264,3.172,3.88,3.111,1.559-.061,2.146-1.006,4.027-1.006s2.411,1.006,4.06.975c1.673-.03,2.737-1.522,3.762-3.019a13.529,13.529,0,0,0,1.7-3.5,5.426,5.426,0,0,1-3.3-4.973h0Z" transform="translate(0.745 5.811)" fill-rule="evenodd"/>
      <path id="Path_21983" data-name="Path 21983" d="M3.781,3.926A5.415,5.415,0,0,0,5.059,0,5.509,5.509,0,0,0,1.438,1.863a5.14,5.14,0,0,0-1.3,3.8A4.561,4.561,0,0,0,3.781,3.926Z" transform="translate(11.33)" fill-rule="evenodd"/>
    </g>
  </g>
</svg>
