<svg xmlns="http://www.w3.org/2000/svg" width="75" height="66.102" viewBox="0 0 75 66.102">
  <g id="Group_2891" data-name="Group 2891" transform="translate(-857.5 -690)">
    <rect id="Rectangle_176" data-name="Rectangle 176" width="75" height="66.102" rx="10" transform="translate(857.5 690)" fill="#fff"/>
    <g id="Group_2886" data-name="Group 2886" transform="translate(882.954 711)">
      <path id="Path_21984" data-name="Path 21984" d="M142.35,109.274a10.532,10.532,0,0,0-.259-2.513H130.55v4.561h6.774a6.007,6.007,0,0,1-2.513,3.988l-.023.153,3.649,2.827.253.025a12.018,12.018,0,0,0,3.66-9.041" transform="translate(-118.259 -96.709)" fill="#4285f4"/>
      <path id="Path_21985" data-name="Path 21985" d="M24.905,166.23a11.715,11.715,0,0,0,8.14-2.977l-3.879-3a7.275,7.275,0,0,1-4.261,1.229,7.4,7.4,0,0,1-6.992-5.108l-.144.012-3.794,2.936-.05.138a12.283,12.283,0,0,0,10.98,6.774" transform="translate(-12.614 -141.648)" fill="#34a853"/>
      <path id="Path_21986" data-name="Path 21986" d="M5.3,79.32a7.567,7.567,0,0,1-.41-2.431,7.952,7.952,0,0,1,.4-2.431L5.278,74.3,1.437,71.312l-.126.06a12.265,12.265,0,0,0,0,11.035L5.3,79.32" transform="translate(0 -64.598)" fill="#fbbc05"/>
      <path id="Path_21987" data-name="Path 21987" d="M24.905,4.753a6.812,6.812,0,0,1,4.753,1.83L33.127,3.2A11.809,11.809,0,0,0,24.905,0a12.282,12.282,0,0,0-10.98,6.774L17.9,9.86a7.43,7.43,0,0,1,7.006-5.108" transform="translate(-12.614)" fill="#eb4335"/>
    </g>
  </g>
</svg>
